<?xml version="1.0" encoding="UTF-8"?> <svg xmlns="http://www.w3.org/2000/svg" width="90" height="40" viewBox="0 0 90 40" fill="none"><rect width="90" height="40" rx="12" fill="#FF5E3A"></rect><path d="M20.9917 25.4083V16.9417C20.9917 16.6083 21.0917 16.2833 21.275 16.0083L23.55 12.625C23.9084 12.0833 24.8 11.7 25.5584 11.9833C26.375 12.2583 26.9167 13.175 26.7417 13.9917L26.3084 16.7167C26.275 16.9667 26.3417 17.1917 26.4834 17.3667C26.625 17.525 26.8334 17.625 27.0584 17.625H30.4834C31.1417 17.625 31.7084 17.8917 32.0417 18.3583C32.3584 18.8083 32.4167 19.3917 32.2084 19.9833L30.1584 26.225C29.9 27.2583 28.775 28.1 27.6584 28.1H24.4084C23.85 28.1 23.0667 27.9083 22.7084 27.55L21.6417 26.725C21.2334 26.4167 20.9917 25.925 20.9917 25.4083Z" fill="white"></path><path d="M18.3417 15.3167H17.4834C16.1917 15.3167 15.6667 15.8167 15.6667 17.05V25.4333C15.6667 26.6667 16.1917 27.1667 17.4834 27.1667H18.3417C19.6334 27.1667 20.1584 26.6667 20.1584 25.4333V17.05C20.1584 15.8167 19.6334 15.3167 18.3417 15.3167Z" fill="white"></path><path d="M49.6915 27.3C48.9582 27.3 48.2748 27.15 47.6415 26.85C47.0082 26.5433 46.4615 26.1233 46.0015 25.59C45.5482 25.0567 45.2215 24.4367 45.0215 23.73L47.3415 23.11C47.4348 23.4967 47.6048 23.83 47.8515 24.11C48.1048 24.39 48.3982 24.6067 48.7315 24.76C49.0715 24.9133 49.4215 24.99 49.7815 24.99C50.2482 24.99 50.6748 24.8767 51.0615 24.65C51.4482 24.4233 51.7548 24.12 51.9815 23.74C52.2082 23.3533 52.3215 22.9267 52.3215 22.46C52.3215 21.9933 52.2048 21.57 51.9715 21.19C51.7448 20.8033 51.4382 20.5 51.0515 20.28C50.6648 20.0533 50.2415 19.94 49.7815 19.94C49.2282 19.94 48.7682 20.04 48.4015 20.24C48.0415 20.44 47.7648 20.6533 47.5715 20.88L45.5115 20.22L45.9515 12.6H53.7715V14.86H47.2415L48.1415 14.01L47.8215 19.31L47.3815 18.77C47.7548 18.43 48.1882 18.1767 48.6815 18.01C49.1748 17.8433 49.6515 17.76 50.1115 17.76C51.0115 17.76 51.8082 17.9667 52.5015 18.38C53.2015 18.7867 53.7482 19.3433 54.1415 20.05C54.5415 20.7567 54.7415 21.56 54.7415 22.46C54.7415 23.36 54.5082 24.1767 54.0415 24.91C53.5748 25.6367 52.9582 26.2167 52.1915 26.65C51.4315 27.0833 50.5982 27.3 49.6915 27.3ZM58.0402 27V24.53H60.5102V27H58.0402ZM69.3945 27.3C68.3745 27.3 67.4745 27.0833 66.6945 26.65C65.9145 26.21 65.3045 25.6 64.8645 24.82C64.4311 24.04 64.2145 23.14 64.2145 22.12V17.48C64.2145 16.46 64.4311 15.56 64.8645 14.78C65.3045 14 65.9145 13.3933 66.6945 12.96C67.4745 12.52 68.3745 12.3 69.3945 12.3C70.4145 12.3 71.3111 12.52 72.0845 12.96C72.8645 13.3933 73.4745 14 73.9145 14.78C74.3545 15.56 74.5745 16.46 74.5745 17.48V22.12C74.5745 23.14 74.3545 24.04 73.9145 24.82C73.4745 25.6 72.8645 26.21 72.0845 26.65C71.3111 27.0833 70.4145 27.3 69.3945 27.3ZM69.3945 25.01C69.9011 25.01 70.3611 24.89 70.7745 24.65C71.1878 24.4033 71.5145 24.0767 71.7545 23.67C71.9945 23.2567 72.1145 22.7967 72.1145 22.29V17.3C72.1145 16.7867 71.9945 16.3267 71.7545 15.92C71.5145 15.5067 71.1878 15.18 70.7745 14.94C70.3611 14.6933 69.9011 14.57 69.3945 14.57C68.8878 14.57 68.4278 14.6933 68.0145 14.94C67.6011 15.18 67.2745 15.5067 67.0345 15.92C66.7945 16.3267 66.6745 16.7867 66.6745 17.3V22.29C66.6745 22.7967 66.7945 23.2567 67.0345 23.67C67.2745 24.0767 67.6011 24.4033 68.0145 24.65C68.4278 24.89 68.8878 25.01 69.3945 25.01Z" fill="white"></path></svg> 