<?xml version="1.0" encoding="UTF-8"?> <svg xmlns="http://www.w3.org/2000/svg" viewBox="0 0 100 100" fill-rule="evenodd"><path d="m84.695 6.8828c-15.742 8.4961-59.461 32.086-75.145 40.547-2.1133 1.1406-3.3867 3.3867-3.2773 5.7812 0.10937 2.3945 1.5781 4.5195 3.7812 5.4648 0 0 21.18 9.0898 21.18 9.0898l-0.10156 13.285c-0.023437 2.582 1.5508 4.918 3.9609 5.8633 2.4062 0.94531 5.1484 0.3125 6.8984-1.5938 0 0 8.9453-9.7773 8.9453-9.7773l22.805 7.5469c1.7109 0.57031 3.5898 0.36719 5.1406-0.55469 1.5586-0.91797 2.6406-2.4648 2.9688-4.2461l11.957-64.77c0.4375-2.3672-0.51953-4.7734-2.4648-6.1914-1.9453-1.4141-4.5312-1.5859-6.6484-0.44531zm2 10.746-10.992 59.527-24.723-8.1797c-1.168-0.39062-2.457-0.050781-3.2852 0.85547l-10.312 11.266 0.10938-14.086zm-74.18 35.301 21.145 9.0742 44.129-44.293z" fill-rule="evenodd" fill="#ffffff"></path></svg> 