<?xml version="1.0" encoding="UTF-8"?> <svg xmlns="http://www.w3.org/2000/svg" width="36" height="36" viewBox="0 0 36 36" fill="none"><path d="M7.84289 17.7579C13.365 15.3084 17.0472 13.6935 18.8897 12.9133C24.1502 10.6857 25.2432 10.2987 25.9557 10.2858C26.1124 10.2831 26.4628 10.3226 26.6897 10.5101C26.8814 10.6684 26.9341 10.8823 26.9593 11.0324C26.9845 11.1825 27.016 11.5244 26.991 11.7916C26.7059 14.8411 25.4724 22.2415 24.8449 25.657C24.5794 27.1022 24.0565 27.5868 23.5504 27.6342C22.4504 27.7372 21.615 26.894 20.5496 26.183C18.8824 25.0703 17.9406 24.3777 16.3223 23.292C14.4521 22.0372 15.6645 21.3476 16.7303 20.2205C17.0092 19.9255 21.856 15.4372 21.9498 15.03C21.9615 14.9791 21.9724 14.7893 21.8616 14.6891C21.7509 14.5888 21.5874 14.6231 21.4694 14.6504C21.3022 14.689 18.6389 16.4813 13.4794 20.0272C12.7234 20.5557 12.0387 20.8132 11.4252 20.7997C10.7489 20.7848 9.44785 20.4103 8.48069 20.0903C7.29442 19.6977 6.3516 19.4901 6.43369 18.8234C6.47646 18.4761 6.94619 18.1209 7.84289 17.7579Z" fill="white"></path></svg> 