<?xml version="1.0" encoding="UTF-8"?> <svg xmlns="http://www.w3.org/2000/svg" width="79" height="43" viewBox="0 0 79 43" fill="none"><path d="M18.144 39.536C17.9947 40.3947 17.6213 40.992 17.024 41.328C16.4267 41.664 15.7733 41.776 15.064 41.664C14.3547 41.552 13.7573 41.2347 13.272 40.712C12.824 40.2267 12.6747 39.5547 12.824 38.696C12.3013 39.5173 11.592 39.9467 10.696 39.984C9.83733 39.984 8.99733 39.7413 8.176 39.256C7.35467 38.7333 6.73867 38.08 6.328 37.296C5.95467 36.4747 6.02933 35.672 6.552 34.888C5.46933 35.5973 4.592 35.8587 3.92 35.672C3.28533 35.448 3.00533 35 3.08 34.328C3.15467 33.656 3.71467 32.9653 4.76 32.256C4.05067 32.4053 3.416 32.256 2.856 31.808C2.33333 31.3227 1.92267 30.7067 1.624 29.96C1.32533 29.176 1.176 28.3733 1.176 27.552C1.176 26.7307 1.32533 26.0213 1.624 25.424C1.96 24.7893 2.50133 24.3973 3.248 24.248C2.16533 24.248 1.344 24.024 0.784 23.576C0.261333 23.0907 0 22.5307 0 21.896C0 21.2613 0.261333 20.7013 0.784 20.216C1.30667 19.7307 2.10933 19.488 3.192 19.488C2.184 19.4133 1.456 19.04 1.008 18.368C0.56 17.6587 0.354667 16.8747 0.392 16.016C0.466667 15.1573 0.784 14.4293 1.344 13.832C1.904 13.1973 2.688 12.9173 3.696 12.992C2.912 12.6187 2.42667 12.1147 2.24 11.48C2.05333 10.8453 2.09067 10.2293 2.352 9.632C2.65067 8.99734 3.09867 8.53067 3.696 8.232C4.33067 7.93334 5.04 7.952 5.824 8.288C5.488 7.84 5.432 7.336 5.656 6.776C5.91733 6.216 6.328 5.67467 6.888 5.152C7.48533 4.592 8.12 4.144 8.792 3.808C9.50133 3.43467 10.1547 3.22934 10.752 3.192C11.3867 3.15467 11.8533 3.36 12.152 3.808C11.928 2.87467 11.928 2.14667 12.152 1.624C12.4133 1.064 12.768 0.728001 13.216 0.616002C13.7013 0.504001 14.168 0.634667 14.616 1.008C15.1013 1.38133 15.456 2.016 15.68 2.912C15.68 1.94134 16.0533 1.21333 16.8 0.728001C17.5467 0.242667 18.4053 0 19.376 0C20.3467 0 21.2053 0.242667 21.952 0.728001C22.6987 1.21333 23.072 1.96 23.072 2.968C23.408 2.072 23.9867 1.53067 24.808 1.344C25.6667 1.15734 26.544 1.232 27.44 1.568C28.336 1.904 29.0267 2.42667 29.512 3.136C30.0347 3.808 30.128 4.592 29.792 5.488C30.4267 4.89067 31.08 4.648 31.752 4.76C32.4613 4.83467 33.0587 5.13333 33.544 5.656C34.0293 6.14133 34.2907 6.73867 34.328 7.448C34.4027 8.12 34.104 8.77334 33.432 9.408C34.4027 9.10934 35.2053 9.184 35.84 9.632C36.512 10.08 36.96 10.6773 37.184 11.424C37.4453 12.1707 37.408 12.9173 37.072 13.664C36.7733 14.3733 36.1387 14.8773 35.168 15.176C35.9147 15.176 36.512 15.4747 36.96 16.072C37.4453 16.632 37.7627 17.3413 37.912 18.2C38.0987 19.0587 38.1173 19.9173 37.968 20.776C37.856 21.6347 37.576 22.3627 37.128 22.96C36.68 23.5573 36.064 23.856 35.28 23.856C35.9147 24.0053 36.3627 24.416 36.624 25.088C36.8853 25.7227 36.9787 26.488 36.904 27.384C36.8667 28.28 36.6987 29.1573 36.4 30.016C36.1013 30.8373 35.7093 31.5093 35.224 32.032C34.7387 32.5547 34.1787 32.76 33.544 32.648C34.2533 33.3573 34.5333 34.16 34.384 35.056C34.2347 35.9147 33.824 36.68 33.152 37.352C32.48 37.9867 31.696 38.3787 30.8 38.528C29.9413 38.64 29.1573 38.3227 28.448 37.576C28.9707 38.8827 29.0453 39.872 28.672 40.544C28.336 41.1787 27.8133 41.3653 27.104 41.104C26.3947 40.88 25.7973 40.1147 25.312 38.808C25.424 39.8907 25.2 40.7307 24.64 41.328C24.1173 41.9253 23.408 42.2613 22.512 42.336C21.6533 42.448 20.8133 42.28 19.992 41.832C19.1707 41.384 18.5547 40.6187 18.144 39.536ZM14.448 23.352C15.0453 23.352 15.456 23.5013 15.68 23.8C15.9413 24.0613 15.9973 24.36 15.848 24.696C15.736 25.032 15.4373 25.256 14.952 25.368C15.4 25.4053 15.8107 25.6853 16.184 26.208C16.5573 26.6933 16.8373 27.272 17.024 27.944C17.2107 28.616 17.248 29.232 17.136 29.792C17.472 29.4933 17.752 29.3627 17.976 29.4C18.2 29.4373 18.312 29.624 18.312 29.96C18.648 29.4747 19.1333 29.3067 19.768 29.456C20.4027 29.568 21.168 29.904 22.064 30.464C21.392 29.9413 21.1867 29.3813 21.448 28.784C21.7093 28.1867 22.2133 27.944 22.96 28.056C22.5867 27.832 22.3813 27.496 22.344 27.048C22.344 26.5627 22.4747 26.152 22.736 25.816C23.0347 25.4427 23.464 25.2747 24.024 25.312C23.5387 25.312 23.184 25.1253 22.96 24.752C22.736 24.3787 22.624 23.9493 22.624 23.464C22.624 22.9787 22.736 22.568 22.96 22.232C23.2213 21.8587 23.5947 21.672 24.08 21.672C23.632 21.672 23.2773 21.4293 23.016 20.944C22.792 20.4213 22.6613 19.8053 22.624 19.096C22.5867 18.3867 22.6427 17.752 22.792 17.192C22.9787 16.5947 23.2773 16.2213 23.688 16.072C23.2773 16.072 22.848 15.848 22.4 15.4C21.9893 14.9147 21.6347 14.3547 21.336 13.72C21.0747 13.048 20.9253 12.432 20.888 11.872C20.6267 12.2453 20.3467 12.432 20.048 12.432C19.7867 12.432 19.6 12.264 19.488 11.928C19.2267 12.4133 18.816 12.7307 18.256 12.88C17.7333 13.0293 17.2293 12.936 16.744 12.6C16.8187 13.048 16.688 13.496 16.352 13.944C16.0533 14.3547 15.6613 14.5413 15.176 14.504C15.5867 14.6907 15.8667 15.0453 16.016 15.568C16.2027 16.0533 16.2587 16.5947 16.184 17.192C16.1467 17.752 15.9787 18.2373 15.68 18.648C15.3813 19.0587 14.9707 19.264 14.448 19.264C14.9333 19.264 15.3067 19.4693 15.568 19.88C15.8293 20.2907 15.96 20.776 15.96 21.336C15.96 21.8587 15.8293 22.3253 15.568 22.736C15.344 23.1467 14.9707 23.352 14.448 23.352Z" fill="#36D6D0"></path><path d="M52.2353 38.808C51.862 39.5547 51.2646 39.984 50.4433 40.096C49.6593 40.1707 48.8566 40.0213 48.0353 39.648C47.214 39.2373 46.5606 38.696 46.0753 38.024C45.6273 37.352 45.59 36.624 45.9633 35.84C45.142 36.5867 44.3766 36.9973 43.6673 37.072C42.9953 37.1093 42.4913 36.9227 42.1553 36.512C41.8193 36.1013 41.7073 35.5787 41.8193 34.944C41.9686 34.272 42.454 33.5627 43.2753 32.816C42.3046 32.368 41.7633 31.8453 41.6513 31.248C41.5393 30.6507 41.7446 30.2027 42.2673 29.904C42.8273 29.568 43.5926 29.624 44.5633 30.072C44.5633 29.176 44.862 28.504 45.4593 28.056C46.0566 27.5707 46.7473 27.328 47.5313 27.328C48.3526 27.328 49.062 27.5707 49.6593 28.056C50.2566 28.504 50.5553 29.176 50.5553 30.072C50.6673 29.0267 51.022 28.3733 51.6193 28.112C52.2166 27.8133 52.7766 27.8693 53.2993 28.28C53.822 28.6907 54.0273 29.4187 53.9153 30.464C54.0273 29.904 54.3633 29.512 54.9233 29.288C55.5206 29.0267 56.2113 28.9333 56.9953 29.008C57.8166 29.0453 58.5633 29.1947 59.2353 29.456C59.0113 28.2613 59.2726 27.1787 60.0193 26.208C59.31 25.7973 58.8993 25.2187 58.7873 24.472C58.6006 25.1813 58.2833 25.6293 57.8353 25.816C57.4246 25.9653 57.0326 25.8347 56.6593 25.424C56.286 24.976 56.0993 24.2667 56.0993 23.296C55.7633 23.9307 55.2966 24.304 54.6993 24.416C54.1393 24.4907 53.598 24.3973 53.0753 24.136C52.5526 23.8373 52.1793 23.4267 51.9553 22.904C51.7313 22.344 51.7873 21.7467 52.1233 21.112C50.7046 21.0373 49.7526 20.776 49.2673 20.328C48.8193 19.8427 48.838 19.376 49.3233 18.928C49.8086 18.48 50.7793 18.2933 52.2353 18.368C51.7126 17.472 51.7126 16.632 52.2353 15.848C52.758 15.0267 53.4486 14.504 54.3073 14.28C54.0833 13.9813 53.9713 13.6267 53.9713 13.216C53.374 13.104 52.8513 12.8613 52.4033 12.488C51.9926 12.0773 51.7873 11.4987 51.7873 10.752C51.7873 11.6853 51.414 12.376 50.6673 12.824C49.958 13.272 49.1366 13.496 48.2033 13.496C47.27 13.496 46.43 13.272 45.6833 12.824C44.974 12.376 44.6193 11.6853 44.6193 10.752C43.9473 10.752 43.406 10.4907 42.9953 9.968C42.622 9.408 42.3793 8.75467 42.2673 8.008C42.1553 7.224 42.174 6.45867 42.3233 5.712C42.4726 4.928 42.7526 4.29333 43.1633 3.808C43.574 3.28533 44.1153 3.024 44.7873 3.024C44.8246 2.016 45.198 1.288 45.9073 0.840003C46.6166 0.354669 47.438 0.130668 48.3713 0.168001C49.3046 0.168001 50.1073 0.429334 50.7793 0.952001C51.4886 1.43733 51.8246 2.184 51.7873 3.192C51.7873 2.22133 52.1046 1.512 52.7393 1.064C53.4113 0.578669 54.1766 0.336002 55.0353 0.336002C55.894 0.336002 56.6406 0.578669 57.2753 1.064C57.9473 1.512 58.2833 2.22133 58.2833 3.192C58.2833 2.22133 58.5073 1.49333 58.9553 1.008C59.4406 0.485334 60.0006 0.224 60.6353 0.224C61.27 0.224 61.8113 0.485334 62.2593 1.008C62.7446 1.49333 62.9873 2.22133 62.9873 3.192C62.9873 2.22133 63.1926 1.49333 63.6033 1.008C64.014 0.485334 64.4806 0.224 65.0033 0.224C65.526 0.224 65.9926 0.485334 66.4033 1.008C66.814 1.49333 67.0193 2.22133 67.0193 3.192C67.0193 2.33334 67.2806 1.68 67.8033 1.232C68.3633 0.784002 68.998 0.560003 69.7073 0.560003C70.4166 0.560003 71.0326 0.784002 71.5553 1.232C72.1153 1.68 72.3953 2.33334 72.3953 3.192C74.0753 1.88533 75.0273 1.4 75.2513 1.736C75.5126 2.03467 74.8033 2.83733 73.1233 4.144C74.0566 4.18134 74.7286 4.57334 75.1393 5.32C75.55 6.02933 75.7366 6.832 75.6993 7.728C75.662 8.624 75.382 9.408 74.8593 10.08C74.374 10.7147 73.6646 11.0133 72.7313 10.976C73.254 11.76 73.3846 12.544 73.1233 13.328C72.862 14.112 72.3766 14.8213 71.6673 15.456C70.958 16.0533 70.1926 16.464 69.3713 16.688C69.894 16.9867 70.286 17.416 70.5473 17.976C70.846 18.536 70.8273 19.1707 70.4913 19.88C71.0886 19.2827 71.742 19.0773 72.4513 19.264C73.198 19.4507 73.87 19.8613 74.4673 20.496C75.0646 21.0933 75.4193 21.7653 75.5313 22.512C75.6806 23.2587 75.4566 23.912 74.8593 24.472C76.1286 24.136 77.0247 24.0987 77.5473 24.36C78.07 24.6213 78.1633 24.9947 77.8273 25.48C77.4913 25.928 76.6886 26.32 75.4193 26.656C76.3526 26.6933 77.0246 26.9547 77.4353 27.44C77.8833 27.9253 78.0886 28.4667 78.0513 29.064C78.014 29.624 77.7527 30.1093 77.2673 30.52C76.782 30.9307 76.0726 31.0987 75.1393 31.024C75.662 31.5093 75.8673 32.1067 75.7553 32.816C75.6806 33.488 75.4006 34.1973 74.9153 34.944C74.4673 35.6533 73.9073 36.288 73.2353 36.848C72.5633 37.3707 71.8726 37.7067 71.1633 37.856C70.4913 38.0053 69.9126 37.8373 69.4273 37.352C69.9126 38.6213 69.9686 39.5733 69.5953 40.208C69.2593 40.8427 68.7366 41.048 68.0273 40.824C67.3553 40.6 66.758 39.872 66.2353 38.64C66.3846 39.6107 66.0673 40.376 65.2833 40.936C64.5366 41.5333 63.4726 41.8693 62.0913 41.944C60.7473 42.0187 59.2166 41.7947 57.4993 41.272C55.782 40.7867 54.0273 39.9653 52.2353 38.808Z" fill="#36D6D0"></path></svg> 