<?xml version="1.0" encoding="UTF-8"?> <svg xmlns="http://www.w3.org/2000/svg" width="40" height="40" viewBox="0 0 40 40" fill="none"><rect width="40" height="40" rx="12" fill="#FF5E3A"></rect><path d="M28.41 14.96V16.79C28.41 17.43 28.11 18.03 27.59 18.4L16.59 26.46C15.88 26.98 14.91 26.98 14.21 26.45L12.77 25.37C12.12 24.88 11.59 23.82 11.59 23.01V14.96C11.59 13.84 12.45 12.6 13.5 12.21L18.97 10.16C19.54 9.95 20.46 9.95 21.03 10.16L26.5 12.21C27.55 12.6 28.41 13.84 28.41 14.96Z" fill="white"></path><path d="M26.82 20.34C27.48 19.86 28.41 20.33 28.41 21.15V23.03C28.41 23.84 27.88 24.89 27.23 25.38L21.76 29.47C21.28 29.82 20.64 30 20 30C19.36 30 18.72 29.82 18.24 29.46L17.41 28.84C16.87 28.44 16.87 27.63 17.42 27.23L26.82 20.34Z" fill="white"></path></svg> 