<?xml version="1.0" encoding="UTF-8"?> <svg xmlns="http://www.w3.org/2000/svg" width="1160" height="141" viewBox="0 0 1160 141" fill="none"><path d="M35.508 162.504L36.396 158.286L34.176 160.728L34.842 157.176L33.066 158.952L33.51 155.844L31.734 157.176L32.178 154.734L30.624 155.622L30.846 153.846L29.07 154.734L29.292 153.18L27.516 154.068L27.738 152.292L25.962 153.18L26.184 151.626L24.408 152.07L24.852 150.738L22.854 151.182L23.298 149.628L21.522 150.294L21.966 148.74L19.968 149.184L20.412 147.852L18.636 148.074L19.08 146.742L17.304 147.186L17.97 145.632L16.194 146.076L16.638 144.744L14.862 144.966L15.528 143.634H13.53L14.196 142.302L12.42 142.524L13.086 141.192H10.866L11.754 139.638L9.534 139.86L10.644 138.306H8.424L9.312 136.974H7.092L8.202 135.642L5.76 135.42L7.092 134.088H4.65L5.982 132.756H3.762L5.094 131.202L2.43 131.424L4.206 129.648H1.098L3.096 128.094L-0.0119967 127.872L2.208 126.54L-0.899997 126.096L1.542 124.986L-1.566 124.32L0.876003 123.21L-2.232 122.766L0.432003 121.656L-2.676 120.99L-0.0119967 120.102L-3.12 119.436L-0.455997 118.326L-3.564 117.66L-0.899997 116.772L-4.008 116.106L-1.122 115.218L-4.23 114.552L-1.566 113.664L-4.674 112.776L-1.788 111.888L-4.896 111.222L-2.01 110.334L-5.118 109.446L-2.232 108.78L-5.34 107.892L-2.454 107.226L-5.562 106.338L-2.676 105.45L-5.784 104.562L-2.676 103.896L-6.006 103.008L-2.898 102.342L-6.006 101.454L-3.12 100.788L-6.228 99.678L-3.12 99.012L-6.228 98.124L-3.342 97.458L-6.45 96.57L-3.342 95.904L-6.45 94.794L-3.342 94.35L-6.45 93.24L-3.564 92.574L-6.672 91.686L-3.564 91.02L-6.672 89.91L-3.564 89.466L-6.672 88.356L-3.564 87.912L-6.672 86.802L-3.786 86.136L-6.672 85.026L-3.786 84.582L-6.672 83.472L-3.786 83.028L-6.672 81.918L-3.564 81.252L-6.672 80.142L-3.342 79.698L-6.672 78.144L-3.564 77.7L-6.45 76.368L-3.342 76.146L-6.45 74.814L-3.342 74.592L-6.228 73.038H-3.12L-6.006 71.484L-2.898 71.262L-5.784 69.93L-2.898 69.708L-5.562 68.154H-2.676L-5.34 66.6H-2.454L-5.118 65.046H-2.01L-4.896 63.492H-1.788L-4.674 61.938H-1.566L-4.23 60.162H-1.344L-4.008 58.608H-1.122L-3.564 57.054H-0.677997L-3.342 55.5H-0.455997L-2.898 53.946H-0.0119967L-2.676 52.392H0.210004L-2.232 50.616L0.654004 50.838L-1.788 49.062L1.098 49.284L-1.566 47.508L1.32 47.73L-1.122 45.954L1.764 46.176L-0.677997 44.4L2.208 44.622L-0.233996 42.624L2.652 43.068L0.210004 41.07L3.096 41.514L0.876003 39.294L3.762 39.96L1.32 37.74L4.206 38.184L1.986 35.964L5.094 36.63L2.652 34.188L5.76 35.076L3.54 32.412L6.87 33.522L4.65 30.414L8.202 32.19L6.426 28.194L9.534 30.636L8.424 26.418L11.088 28.86L10.2 25.086L12.42 27.528L11.754 23.976L13.752 26.418L13.308 22.866L15.084 25.53L14.64 21.978L16.638 24.642L16.194 20.868L17.97 23.754L17.526 19.98L19.302 22.866L18.858 19.092L20.856 22.2L20.412 18.204L22.188 21.312L21.744 17.538L23.742 20.646L23.298 16.65L25.296 19.98L24.852 15.984L26.628 19.314L26.406 15.318L28.182 18.648L27.738 14.874L29.736 18.204L29.292 14.208L31.29 17.538L30.846 13.764L32.622 17.094L32.4 13.32L34.176 16.65L33.954 12.876L35.73 16.206V12.432L37.284 15.762V11.988L38.838 15.318V11.766L40.392 14.874V11.322L41.946 14.43V11.1L43.5 13.986V10.656L45.054 13.542V10.434L46.608 13.098L46.83 9.99L48.162 12.654L48.384 9.546L49.716 12.21L49.938 9.102L51.27 11.766L51.492 8.65799L52.824 11.1V8.214L54.156 10.656L54.378 7.548L55.71 10.212L55.932 7.104L57.264 9.546L57.486 6.438L58.818 9.102L59.04 5.994L60.372 8.65799L60.594 5.328L61.926 7.992L62.148 4.66201L63.258 7.548L63.702 4.218L64.812 7.104L65.256 3.774L66.366 6.65999L66.81 3.108L68.142 6.216L68.364 2.66401L69.696 5.77201L70.14 2.442L71.25 5.54999L71.916 1.998L73.026 5.54999L73.692 1.776L75.024 5.54999L76.134 1.776L76.8 5.54999L78.354 1.998L78.798 5.328L80.352 2.22L80.574 5.54999L81.906 2.66401L82.128 5.77201L83.682 3.108L83.904 5.994L85.458 3.55199L85.68 6.438L87.012 3.996L87.234 6.65999L88.788 4.44L89.01 7.104L90.564 5.106V7.548L92.118 5.54999V7.992L93.894 5.994V8.436L95.67 6.65999V8.88L97.224 7.104V9.324L98.778 7.77001V9.76799L100.332 8.214V10.212L101.886 8.65799V10.656L103.44 9.102V11.1L104.994 9.546V11.544L106.77 10.212L106.548 12.21L108.324 10.656L108.102 12.654L109.878 11.1L109.656 13.098L111.432 11.544L111.21 13.764L113.208 12.21L112.764 14.43L114.762 12.876L114.318 15.096L116.316 13.542L115.65 15.762L118.092 14.43L117.204 16.872L119.868 15.54L118.758 17.982L121.644 16.872L120.534 19.092L122.976 17.982L121.644 20.202L124.308 19.314L122.976 21.312L125.418 20.424L124.086 22.422L126.75 21.534L125.196 23.532L128.082 22.644L126.528 24.642L129.192 23.754L127.638 25.752L130.524 24.864L128.748 26.862L131.856 25.974L130.08 27.972L132.966 27.084L131.19 29.304L134.298 28.194L132.3 30.414L135.63 29.304L133.41 31.524L136.74 30.414L134.52 32.856L137.85 31.746L135.63 34.188L139.182 32.856L136.74 35.298L140.292 34.41L137.628 36.63L141.18 35.742L138.516 38.184L142.29 37.296L139.404 39.738L143.178 38.85L140.292 41.292L144.066 40.626L140.514 43.29L145.176 43.068L141.18 45.066L145.842 45.732L142.29 47.064L146.064 47.73L142.29 48.84L146.064 49.95L142.512 50.838L146.064 51.948L141.402 52.836L145.62 55.722L141.18 55.278L144.066 59.052L139.626 57.72L141.624 62.604L137.85 60.162L138.072 64.824L135.63 61.938L135.186 66.378L133.188 63.048L131.856 67.044L130.746 63.936L129.414 67.044L128.526 64.158L127.194 67.044L126.528 64.38L125.418 67.044L124.974 64.602L123.864 66.822L123.42 64.602L122.31 66.822L121.644 64.602L120.534 67.044L120.09 64.602L118.98 67.044L118.536 64.824L117.426 67.044L116.982 64.824L115.872 67.266L115.428 64.824L114.318 67.488L113.874 65.046L112.542 67.488L112.098 65.046L110.988 67.71L110.544 65.046L109.434 67.932L108.99 65.268L107.88 68.154L107.436 65.268L106.104 68.154L105.66 65.268L104.328 68.376L103.884 65.268L102.33 68.376L102.108 65.046L100.554 68.154L100.332 64.602L98.334 67.71L98.556 64.158L96.114 67.044L96.78 63.492L94.116 66.378L95.004 62.826L92.118 65.268L93.228 61.938L90.12 64.158L91.674 61.05L88.566 62.826L90.12 59.94L86.79 61.494L88.788 58.608L85.236 59.94L87.234 57.498L84.126 58.608L85.902 56.388L83.016 57.276L84.792 55.278L82.128 56.166L83.682 54.39L81.24 55.278L82.572 53.502L80.352 54.612L81.906 52.392L79.464 53.724L80.574 51.726L78.354 53.058L79.464 50.838L77.466 52.614L78.132 50.172L76.356 52.17L76.8 49.728L75.246 51.726L75.69 49.284L74.136 51.282L74.358 48.84L73.026 51.06V48.618L71.694 50.838V48.396L70.584 50.838L70.362 48.618L69.474 50.838L69.03 48.618L68.364 50.838L67.698 48.618L67.476 51.06L66.588 48.84L66.366 51.282L65.256 49.284V51.504L64.146 49.506V51.948L63.036 50.172L63.258 52.392L61.926 50.616L62.37 52.836L60.816 51.282L61.482 53.28L59.928 51.948L60.594 53.946L59.262 52.836L59.928 54.39L58.152 53.502L59.262 55.278L57.486 54.39L58.596 56.166L56.598 55.5L58.152 57.276L55.932 56.61L57.486 58.386L55.266 57.942L57.042 59.496L54.822 59.274L56.598 60.828L54.156 60.606L56.376 62.382L54.156 62.16L56.154 63.492H53.712L55.932 64.824H53.49L55.932 66.156L53.49 66.378L55.71 67.71L53.268 67.932L55.71 69.042L53.268 69.264L55.71 70.596L53.268 70.818L55.932 71.928L53.268 72.372L55.932 73.482L53.268 73.926L55.932 75.036L53.268 75.258L56.154 76.368L53.268 76.812L56.154 77.922L53.268 78.366L56.376 79.476L53.49 79.92L56.376 81.03L53.49 81.474L56.598 82.584L53.49 83.028L56.82 84.138L53.49 84.804L56.82 85.914L53.712 86.358L57.042 87.468L53.934 87.912L57.042 89.022L53.934 89.466L57.264 90.576L53.934 91.02L57.264 92.13L54.156 92.574L57.486 93.684L54.156 94.128L57.708 95.016L54.378 95.682L57.708 96.57L54.6 97.014L57.93 97.902L54.6 98.568L58.152 99.234L54.822 99.9L58.374 100.788L55.044 101.454L58.596 102.12L55.488 102.786L58.818 103.452L55.488 104.34L59.04 104.784L56.154 105.672L59.484 105.894L56.598 107.004H59.706L57.042 108.336L60.15 108.114L57.708 109.446L60.594 109.002L58.374 110.556L61.26 109.89L59.04 111.444L61.704 110.778L59.706 112.332L62.148 111.444L60.594 112.998L62.814 111.888L61.26 113.442L63.258 112.332L61.704 114.552L64.146 112.776L63.036 114.552L64.59 112.998L63.702 115.218L65.256 113.442L64.368 115.662L65.922 113.664L65.256 116.106L66.81 113.886L66.366 116.55L67.698 113.886L67.476 116.772L68.586 114.108V116.994L69.474 114.108L69.696 116.994L70.584 114.108L70.806 116.994L71.472 113.886L71.916 116.772L72.36 113.664L73.026 116.55L73.248 113.442L74.136 116.328L73.914 113.22L75.024 115.662L74.58 112.998L75.69 115.218L75.246 112.554L76.356 114.33L75.69 112.332L77.466 114.552L76.356 111.888L78.798 114.552L77.244 111L79.464 113.22L77.91 110.334L80.574 112.776L78.576 109.668L81.906 112.11L79.464 108.558L83.016 111.222L80.574 107.448L84.348 110.334L81.684 106.116L85.902 109.224L83.016 104.562L87.234 108.114L84.57 103.23L89.01 107.004L86.346 101.676L90.564 106.116L88.566 100.122L92.562 105.006L91.008 98.79L94.56 104.34L93.894 97.68L96.558 103.674L97.002 96.792L99 102.786L99.888 96.57L101.22 102.12L102.33 96.348L103.218 101.676L104.328 96.348L105.216 101.454L106.548 96.348L107.214 101.454L108.324 96.57L108.99 101.454L110.322 96.792L110.766 101.454L112.098 97.014L112.542 101.454L113.874 97.236L114.318 101.676L115.65 97.458L116.094 101.676L117.426 97.68L117.87 101.676L118.98 97.902L119.646 101.676L120.534 98.124L121.2 102.12L122.31 98.346L122.976 102.342L124.086 98.568L124.752 102.564L126.084 99.012L126.528 102.786L128.082 99.234L128.304 103.23L130.08 99.678V103.674L132.3 100.344L131.856 104.118L134.298 101.232L133.632 105.894L138.294 103.008L136.74 107.448L141.624 106.116L138.738 109.668H143.844L140.292 112.11L144.51 113.664L141.402 114.774L144.51 116.106L141.402 116.772L144.288 118.548L141.18 118.992L143.844 120.768L140.958 120.99L142.956 122.988L140.292 122.766L142.068 124.986L139.626 124.764L141.18 126.984L138.96 126.54L140.292 128.316L138.072 127.872L139.182 129.87L137.184 129.426L138.294 131.202L136.296 130.758L137.184 132.756L135.408 132.312L136.074 134.088L134.52 133.644L135.186 135.42L133.632 134.976L134.076 136.752L132.522 136.308L132.966 138.084L131.412 137.64L131.856 139.416L130.524 138.972L130.746 140.748L129.414 140.304V142.08L128.082 141.414L128.304 143.19L126.972 142.746V144.522L125.862 143.856L125.64 145.632L124.308 144.966L124.086 146.964L122.976 146.076L122.532 148.074L121.422 146.964L121.2 148.962L120.09 147.852L119.646 149.85L118.758 148.74L118.092 150.516L117.204 149.406L116.76 151.404L115.872 150.072L115.206 152.07L114.318 150.738L113.874 152.958L112.986 151.404L112.32 153.624L111.432 152.07L110.988 154.29L109.878 152.736L109.434 155.178L108.546 153.18L108.102 155.844L106.992 153.846L106.548 156.51L105.438 154.512L105.216 157.176L104.106 154.956L103.662 157.842L102.552 155.622L102.108 158.508L100.998 156.066L100.776 158.952L99.666 156.51L99.222 159.618L98.112 157.176L97.668 160.062L96.558 157.62L96.114 160.728L95.004 158.064L94.782 161.172L93.45 158.508L93.228 161.616L92.118 158.952L91.674 162.06L90.564 159.174L90.12 162.504L89.01 159.618L88.566 162.948L87.456 160.062L87.012 163.392L85.902 160.506L85.458 163.614L84.348 160.728L83.904 164.058L82.794 161.172L82.35 164.502L81.24 161.394L80.796 164.946L79.686 161.838L79.242 165.39L78.132 162.282L77.688 165.612L76.578 162.504L76.134 166.056L75.024 162.948L74.58 166.5L73.47 163.17L73.026 166.944L71.916 163.614L71.25 167.388L70.362 163.836L69.696 167.832L68.586 164.058L67.698 168.276L66.81 163.836L65.7 168.498L65.034 164.058L63.48 168.72L63.258 164.502L61.482 168.72V164.724L59.928 168.72L59.706 164.502L58.152 168.72V164.502L56.376 168.72V164.502L54.822 168.72V164.28L53.046 168.498L53.268 164.058L51.492 168.276V163.836L49.716 168.054L49.938 163.392L47.94 167.61L48.162 163.17L46.164 167.388L46.608 162.726L44.61 166.944L45.054 162.282L42.834 166.278L43.278 161.838L41.058 165.834L41.724 161.172L39.282 165.168L39.948 160.95L37.506 164.502L38.172 162.06L36.84 164.058L37.95 159.396L35.508 162.504Z" fill="#FAFAFA"></path><path d="M165.244 127.206L167.908 126.762L165.244 125.652L168.13 125.208L165.244 124.098L168.13 123.654L165.244 122.544L168.13 122.1L165.244 120.99L168.13 120.546L165.244 119.436L168.13 118.992L165.244 117.882L168.13 117.216L165.244 116.106L168.13 115.662L165.244 114.552L167.908 114.108L165.244 112.998L167.908 112.554L165.244 111.444L167.908 111L165.244 109.89L167.908 109.446L165.244 108.336L167.908 107.892L165.244 106.782L167.908 106.338L165.244 105.228L168.13 104.784L165.244 103.674L168.13 103.008L165.244 101.898L168.13 101.454L165.244 100.344L168.13 99.9L165.244 98.79L168.13 98.346L165.244 97.236L168.13 96.792L165.244 95.682L168.13 95.238L165.244 94.128L168.13 93.684L165.244 92.574L168.13 92.13L165.244 91.02L167.908 90.576L165.244 89.466L167.908 88.8L165.244 87.69L167.908 87.246L165.244 86.136L167.908 85.692L165.022 84.582L167.908 84.138L165.022 83.028L167.908 82.584L165.022 81.474L167.908 81.03L165.022 79.92L167.908 79.476L164.8 78.366L167.686 77.922L164.8 76.812L167.686 76.368L164.8 75.258L167.686 74.592L164.8 73.482L167.686 73.038L164.8 71.928L167.686 71.484L164.8 70.374L167.686 69.93L164.8 68.82L167.686 68.376L164.8 67.266L167.686 66.822L164.8 65.712L167.686 65.268L164.8 64.158L167.686 63.714L164.8 62.604L167.686 62.16L164.8 61.05L167.686 60.384L164.8 59.274L167.686 58.83L164.8 57.72L167.686 57.276L164.8 56.166L167.686 55.722L164.8 54.612L167.686 54.168L164.8 53.058L167.686 52.614L164.8 51.504L167.686 51.06L164.8 49.95L167.908 49.506L164.8 48.174L167.908 47.73L164.8 46.62L167.908 45.954L164.8 44.844L167.908 44.4L165.022 43.29L167.908 42.846L165.022 41.736L167.908 41.07L165.022 39.96L167.908 39.516L165.022 38.406L167.908 37.962L165.022 36.852L167.908 36.186L165.022 35.076L167.908 34.632L165.244 33.522L168.13 33.078L165.244 31.746L168.13 31.302L165.244 30.192L168.13 29.748L165.244 28.638L168.13 28.194L165.466 26.862L168.352 26.418L165.466 25.086L168.574 24.642L165.688 23.31L168.796 22.866L165.91 21.312L169.018 21.09L166.132 19.314H169.462L166.798 17.316L171.016 17.76L168.13 13.542L172.126 14.874L170.35 10.878L173.68 13.098L173.014 7.992L176.344 10.878V6.216L178.342 9.324L179.008 5.328L180.34 8.65799L181.228 4.884L182.338 7.992L183.448 4.66201L184.336 7.548L185.224 4.44L185.89 7.104L187 4.218L187.666 7.104L188.776 3.996L189.22 6.882L190.33 3.996L190.774 6.882L192.106 3.774L192.55 6.65999L193.66 3.774L194.104 6.65999L195.214 3.774L195.658 6.65999L196.768 3.55199L197.212 6.65999L198.322 3.55199L198.766 6.65999L200.098 3.55199L200.32 6.438L201.43 3.55199L201.874 6.438L202.984 3.55199L203.65 6.65999L204.76 3.55199L205.204 6.438L206.314 3.33L206.758 6.438L207.868 3.33L208.312 6.438L209.644 3.33L210.088 6.438L211.198 3.33L211.642 6.438L212.752 3.33L213.196 6.438L214.306 3.108L214.75 6.438L215.86 3.108L216.304 6.438L217.414 3.108L217.858 6.438L218.968 3.108L219.412 6.438L220.522 3.108L220.966 6.438L222.076 3.108L222.742 6.438L223.852 3.33L224.296 6.438L225.406 3.33L225.85 6.438L226.96 3.33L227.404 6.438L228.514 3.55199L228.958 6.65999L230.068 3.55199L230.512 6.65999L231.622 3.55199L232.066 6.65999L233.176 3.774L233.62 6.65999L234.73 3.774L235.174 6.882L236.284 3.996L236.95 6.882L238.06 3.996L238.504 6.882L239.614 4.218L240.058 6.882L241.168 4.218L241.612 7.104L242.722 4.218L243.166 7.104L244.276 4.44L244.72 7.104L245.83 4.44L246.274 7.104L247.384 4.44L247.828 7.104L248.938 4.44L249.382 7.104L250.492 4.44L251.158 7.104L252.268 4.44L252.712 7.104L253.822 4.44L254.266 7.104L255.376 4.44L255.82 7.104L256.93 4.218L257.374 7.104L258.484 4.218L258.928 6.882L260.038 3.996L260.482 6.882L261.592 3.996L262.036 6.65999L263.146 3.774L263.59 6.65999L264.922 3.55199L265.366 6.438L266.476 3.33L266.92 6.438L268.03 3.33L268.474 6.438L269.584 3.108L270.028 6.216L271.138 2.886L271.582 6.216L272.692 2.66401L273.136 5.994L274.246 2.442L274.69 5.994L275.8 2.442L276.244 5.77201L277.354 2.22L277.798 5.77201L279.13 1.998L279.574 5.54999L280.684 1.776L281.128 5.77201L282.46 1.776L282.904 5.54999L284.014 1.55399L284.68 5.54999L285.79 1.332L286.234 5.54999L287.566 1.11L288.01 5.328L289.342 1.11L289.786 5.328L291.118 0.888002L291.562 5.328L292.894 0.888002L293.338 5.328L294.892 0.666005L295.114 5.328L296.668 0.666005L296.89 5.77201L298.888 0.666005V6.216L301.33 0.666005L300.886 6.65999L303.994 1.11L303.106 7.326L306.88 1.998L305.104 8.214L309.766 3.108L307.102 9.546L312.874 4.884L308.878 10.878L315.538 7.326L309.988 13.32L318.646 11.1L311.764 15.318L320.2 15.096L314.206 17.538H321.088L314.872 19.536L321.754 19.98L315.538 21.534L322.198 22.422L315.982 23.532L322.42 24.642L316.426 25.53L322.642 26.64L316.87 27.306L322.642 28.416L316.87 29.082L322.642 30.192L317.314 30.858L322.864 31.968L317.314 32.412L322.864 33.522L317.536 33.966L322.864 35.076L317.536 35.52L322.864 36.852L317.536 37.296L322.864 38.406L317.536 38.85L322.864 39.96L317.314 40.404L322.642 41.514L317.314 41.958L322.642 43.068L317.314 43.512L322.642 44.844L317.314 45.288L322.42 46.398L317.314 46.842L322.42 47.952L317.092 48.396L322.198 49.506L317.092 49.95L322.198 51.06L316.87 51.504L321.976 52.836L316.87 53.28L321.754 54.39L316.87 54.834L321.754 55.944L316.87 56.388L321.532 57.498L316.648 57.942L321.31 59.052L316.648 59.496L321.31 60.606L316.648 61.05L321.088 62.16L316.426 62.604L321.088 63.714L316.426 64.158L320.866 65.268L316.426 65.712L320.644 66.822L316.204 67.266L320.644 68.376L316.204 68.82L320.422 69.93L316.204 70.374L320.422 71.484L315.982 71.928L320.2 73.038L315.982 73.482L320.2 74.592L315.982 75.036L320.2 76.146L315.982 76.59L319.978 77.7L315.76 78.144L319.978 79.254L315.76 79.698L319.756 80.808L315.76 81.252L319.756 82.362L315.76 82.806L319.756 83.916L315.76 84.36L319.534 85.47L315.538 85.914L319.534 87.024L315.538 87.468L319.312 88.578L315.538 89.022L319.312 90.132L315.316 90.576L319.09 91.686L315.316 92.13L318.868 93.24L315.094 93.684L318.646 94.794L315.094 95.238L318.424 96.348L314.872 96.792L318.424 97.902L314.872 98.346L318.202 99.456L314.65 99.9L317.758 101.01L314.428 101.454L317.536 102.564L314.428 103.008L317.314 104.118L314.206 104.562L317.092 105.672L313.984 106.116L316.87 107.226L313.984 107.67L316.648 108.78L313.762 109.224L316.426 110.334L313.762 110.778L316.204 111.888L313.54 112.332L315.982 113.442L313.54 113.886L315.76 114.996L313.318 115.44L315.76 116.55L313.096 116.994L315.538 118.326L313.096 118.992L315.538 120.102L313.096 120.546L315.538 121.656L313.096 122.1L315.538 123.432L313.096 123.876L315.538 124.986L313.096 125.43L315.538 126.762L313.096 127.206L315.538 128.316L313.096 128.76L315.538 130.092L313.096 130.536L315.538 131.646L313.096 132.09L315.316 133.422L313.096 133.866L315.316 134.976L312.874 135.42L315.094 136.752L312.874 137.196L315.094 138.306L312.652 138.972L314.872 140.082L312.652 140.526L314.65 141.858L312.43 142.302L314.206 143.634L312.208 144.078L313.984 145.632L311.764 145.854L313.318 147.408L311.32 147.63L312.652 149.406H310.654L311.764 151.182H309.988L310.654 152.958L308.878 152.736L309.322 154.29L307.768 154.068V155.622L306.436 155.178L306.214 156.732L304.882 156.066L304.216 157.398L303.106 156.732L301.552 157.842L300.886 157.176L299.776 158.064L299.11 157.62L297.778 158.064L297.334 157.62L296.002 158.286L295.558 157.842L294.226 158.286L293.782 157.842L292.45 158.286L292.006 157.842L290.896 158.286L290.452 157.842L289.12 158.286L288.676 157.842L287.566 158.286L287.122 158.064L286.012 158.508L285.568 158.064L284.236 158.73L283.792 158.286L282.46 158.952L282.016 158.508L280.684 159.174L280.24 158.508L278.908 159.396L278.464 158.73L277.132 159.618L276.688 158.73L275.356 159.618L274.912 158.73L273.58 159.618L273.136 158.508L271.582 159.396L271.36 158.064L269.584 158.952V157.398L267.808 158.064L268.03 156.066L264.478 156.288L265.366 154.29L262.924 153.846L263.812 152.958L261.814 152.514L262.924 151.182L260.704 150.738L262.258 149.628L260.038 148.518L261.592 147.63L259.594 146.52L261.148 145.854L259.15 144.522L260.926 144.078L258.928 142.968L260.704 142.302L258.484 141.192L260.482 140.748L258.262 139.416L260.26 138.972L258.04 137.862L260.038 137.418L257.818 136.308L260.038 135.864L257.596 134.754L259.816 134.31L257.374 133.2L259.816 132.756L257.374 131.646L259.816 130.98L257.152 129.87L259.816 129.426L257.152 128.316L259.816 127.872L257.152 126.762L259.816 126.318L257.152 125.208L260.038 124.764L257.374 123.432L259.816 122.988L257.374 121.878L259.816 121.434L257.374 120.324L260.038 119.88L257.596 118.77L260.038 118.326L257.596 117.216L260.038 116.772L257.818 115.662L260.038 114.996L257.818 113.886L260.26 113.442L258.04 112.332L260.26 111.888L258.04 110.778L260.26 110.334L258.04 109.224L260.26 108.78L258.04 107.67L260.26 107.226L258.04 106.116L260.26 105.672L258.04 104.34L260.26 103.896L257.818 102.786L260.038 102.342L257.818 101.232L260.038 100.788L257.596 99.678L259.816 99.234L257.374 98.124L259.816 97.68L257.152 96.57L259.594 96.126L256.93 95.016L259.594 94.35L256.708 93.24L259.372 92.796L256.708 91.686L259.372 91.242L256.486 90.132L259.372 89.688L256.264 88.578L259.15 88.134L256.264 87.024L259.15 86.58L256.042 85.47L259.15 84.804L256.042 83.694L259.15 83.25L256.264 82.14L259.15 81.696L256.264 80.586L259.372 80.142L256.264 79.032L259.372 78.588L256.486 77.478L259.372 77.034L256.708 75.924L259.816 75.258L256.93 73.926L259.816 73.482L257.152 72.372L259.816 71.928L257.374 70.596L260.038 70.152L257.374 69.042L260.038 68.598L257.596 67.488L260.038 66.822L257.596 65.712L260.038 65.268L257.818 64.158L260.038 63.714L257.818 62.604L259.816 62.16L257.596 61.272L259.594 60.606L257.374 59.94L259.372 59.052L256.93 58.608L257.596 58.164H256.93H257.152L256.708 58.386L258.04 55.722L255.154 56.832L254.932 57.276V56.832V55.5L253.822 57.276V55.056L252.49 57.054L252.268 54.834L250.936 57.276L250.714 54.834L249.604 57.276L249.382 54.834L248.272 57.276L247.828 54.834L246.718 57.498L246.274 54.834L245.164 57.498L244.72 54.834L243.61 57.72L242.944 54.834L241.834 57.72L241.39 54.834L240.28 57.72L239.614 54.612L238.504 57.72L238.06 54.834L236.728 57.72L236.284 54.834L235.174 57.72L234.952 55.056L233.842 57.72L233.398 55.056L232.51 57.72L231.844 55.278L231.178 57.942L230.512 55.056L229.624 58.164L228.958 54.834L227.848 58.386L227.626 57.942V58.164L226.072 55.5V58.164L226.738 58.608H226.294V59.274L225.406 58.386L224.074 58.164L226.294 59.718L224.074 59.496L225.85 60.828H223.186L225.628 61.938L222.742 62.16L225.406 63.492L222.52 63.936L225.184 65.046L222.298 65.49L224.962 66.6L222.076 67.044L224.518 68.154L221.854 68.598L224.296 69.708L221.632 70.152L224.074 71.262L221.632 71.928L223.852 73.038L221.41 73.482L223.408 74.592L221.188 75.036L223.186 76.146L220.966 76.812L222.964 77.922L220.744 78.366L222.52 79.698L220.744 80.142L222.298 81.252L220.522 81.696L222.076 82.806L220.522 83.25L221.854 84.36L220.3 85.026L221.632 86.136L220.3 86.58L221.41 87.69L220.078 88.134L221.188 89.244L220.078 89.688L221.188 90.798L220.078 91.242L220.966 92.352L220.078 93.018L221.188 94.128L220.078 94.572L221.188 95.682L220.078 96.126L221.188 97.236L220.078 97.68L221.41 98.79L220.3 99.234L221.632 100.344L220.522 100.788L221.854 102.12L220.522 102.564L222.076 103.674L220.744 104.118L222.52 105.228L220.966 105.672L222.742 106.782L221.188 107.226L223.186 108.558L221.41 108.78L223.408 110.112L221.41 110.556L223.852 111.666L221.632 112.11L224.074 113.22L221.854 113.664L224.296 114.774L222.076 115.218L224.518 116.55L222.076 116.994L224.74 118.104L222.298 118.548L224.962 119.658L222.298 120.102L225.184 121.212L222.52 121.656L225.406 122.766L222.742 123.21L225.85 124.542L222.964 124.986L226.072 126.096L222.964 126.54L226.294 127.65L223.186 128.094L226.738 129.204L223.408 129.648L226.96 130.758L223.63 131.202L227.404 132.534L223.852 132.978L227.626 134.088L223.852 134.532L227.848 135.642L224.074 136.086L228.07 137.196L224.074 137.64L228.07 138.75L224.074 139.194L228.07 140.526L223.852 140.97L228.07 142.08L223.852 142.524L227.848 143.856L223.408 144.3L227.626 145.854L222.298 146.076L226.96 148.518L221.854 148.296L226.072 151.404L221.188 150.516L224.962 153.624L219.412 152.514L223.186 157.176L218.302 154.734L220.078 159.618L216.304 156.288L216.97 161.838L213.418 158.286V162.948L211.642 159.618L210.976 163.17L209.644 160.062L208.756 163.17L207.868 160.284L206.758 162.948L206.092 160.062L204.76 162.726L204.316 160.284L203.206 162.504L202.54 160.062L201.43 162.06L200.764 159.84L199.654 161.838L199.21 159.84L198.1 161.616L197.656 159.618L196.324 161.172L195.88 159.618L194.77 160.95L194.326 159.396L193.216 160.728L192.55 159.396L191.44 160.728L190.996 159.174L189.886 160.506L189.442 159.174L188.11 160.506L187.666 159.174L186.556 160.506L186.112 159.174L184.78 160.506L184.336 158.952L182.56 160.506L182.338 158.73L180.118 160.284V158.286L177.898 159.618L178.12 157.62L175.678 158.73L176.344 156.288L172.792 157.176L173.902 154.734L170.572 154.956L172.348 152.958L169.24 152.514L171.238 151.182L168.352 150.294L170.572 149.184L167.686 148.074L169.906 147.186L167.242 146.298L169.462 145.41L167.02 144.3L169.018 143.634L166.576 142.746L168.796 142.08L166.354 140.97L168.796 140.304L166.132 139.194L168.574 138.75L166.132 137.418L168.352 136.974L165.91 135.864L168.352 135.42L165.688 134.31L168.13 133.866L165.688 132.534L168.13 132.312L165.466 131.202L168.13 130.758L165.244 129.648L166.576 129.426L165.244 128.982L168.13 128.538L165.244 127.206Z" fill="#FAFAFA"></path><path d="M342.725 126.762L343.835 126.984L342.947 125.43L344.279 125.652L342.947 123.876L344.723 124.32L343.169 122.322L344.945 122.766L343.169 120.768L345.611 121.212L343.613 119.436L346.277 119.88L344.501 118.104L346.943 118.548L345.167 116.772L347.387 116.994L345.833 115.44L348.053 115.662L346.499 113.886L348.719 114.108L347.165 112.554L349.385 112.776L347.831 111.222H349.829L348.275 109.668L350.273 109.89L348.941 108.114L350.939 108.336L349.385 106.782H351.383L349.829 105.228H351.827L350.273 103.674L352.271 103.896L350.717 102.12L352.715 102.342L351.161 100.566L352.937 100.788L351.383 99.012L353.381 99.234L351.827 97.68H353.825L352.049 96.126H354.269L352.493 94.572H354.491L352.715 93.018L354.935 93.24L353.159 91.464L355.379 91.686L353.603 89.91L355.823 90.132L353.825 88.356L356.267 88.578L354.269 86.802L356.711 87.024L354.713 85.248L356.933 85.47L354.935 83.694L357.377 83.916L355.379 82.14L357.821 82.362L355.601 80.586L358.043 80.808L356.045 79.032L358.487 79.254L356.267 77.478L358.709 77.7L356.489 75.924L359.153 76.146L356.711 74.37L359.375 74.592L356.933 72.816L359.819 73.038L357.155 71.262L360.041 71.484L357.377 69.486L360.485 69.93L357.599 67.932L360.929 68.598L358.043 66.378L361.151 67.044L358.487 64.824L361.595 65.49L358.709 63.27L362.261 63.936L359.375 61.716L362.705 62.382L359.819 60.384L363.149 60.828L360.263 58.83L363.815 59.274L360.929 57.276L364.259 57.942L361.595 55.722L364.925 56.388L362.261 54.39L365.591 54.834L363.149 52.836L366.257 53.502L363.815 51.282L366.923 51.948L364.481 49.95L367.589 50.394L365.369 48.396L368.255 49.062L366.257 46.842L369.143 47.508L367.145 45.288L370.031 45.954L368.033 43.734L371.141 44.622L369.365 41.958L371.141 42.624L370.031 41.07L371.807 41.736L370.475 40.404L372.917 40.626L371.141 38.85L373.361 39.072L371.585 37.518L373.805 37.74L372.029 35.964L374.471 36.186L372.473 34.41L374.915 34.632L372.917 32.856L375.359 33.078L373.361 31.302L375.803 31.524L373.805 29.748L376.247 29.97L374.249 28.194L376.691 28.416L374.693 26.418L377.135 26.862L375.137 24.864L377.801 25.308L375.581 23.088L378.245 23.754L376.025 21.534L378.911 22.2L376.691 19.758L379.577 20.646L377.357 17.982L380.465 19.092L378.245 16.206L381.353 17.538L379.133 14.43L382.463 15.984L380.465 12.654L383.573 14.43L381.797 10.878L384.905 13.098L383.573 9.324L386.459 11.766L385.571 7.77001L388.235 10.656L388.013 6.65999L390.233 9.76799L390.677 5.54999L392.453 8.88L393.119 4.884L394.451 8.214L395.561 4.44L396.449 7.77001L397.781 4.218L398.447 7.548L399.779 4.218L400.445 7.104L401.555 3.996L402.221 7.104L403.331 3.996L403.775 7.104L405.107 3.996L405.551 6.882L406.883 3.996L407.327 6.882L408.437 3.996L408.881 6.882L410.213 3.774L410.657 6.882L411.767 3.774L412.211 6.882L413.543 3.774L413.987 6.882L415.097 3.774L415.541 6.882L416.873 3.774L417.317 6.882L418.427 3.774L418.871 6.882L419.981 3.774L420.647 6.882L421.757 3.996L422.201 6.882L423.311 3.996L423.755 6.882L425.087 3.996L425.531 7.104L426.863 3.996L427.085 7.104L428.417 4.218L428.861 7.104L430.193 4.44L430.637 7.548L432.191 4.44L432.413 7.548L433.967 4.66201L434.189 7.992L435.965 5.106V8.214L437.963 5.54999L437.741 8.88L439.961 6.216L439.517 9.546L442.181 7.104L441.293 10.434L444.179 8.436L442.847 11.544L446.177 9.76799L444.401 12.876L447.953 11.544L445.955 14.208L449.285 13.542L447.287 15.762L450.617 15.318L448.175 17.316L451.505 17.094L449.285 18.87H452.393L449.951 20.424H453.059L450.839 21.978H453.725L451.283 23.532L454.613 23.754L452.171 25.308H455.279L452.837 26.862L455.945 27.084L453.281 28.416L456.611 28.638L453.947 29.97L457.277 30.192L454.613 31.524L457.943 31.746L455.279 33.078L458.609 33.3L455.945 34.854H459.275L456.611 36.408H459.941L458.609 37.074L460.163 36.852L458.165 38.406L460.829 37.74L457.943 40.404L462.161 39.738L459.275 41.958L463.049 41.514L460.163 43.29L463.937 43.068L461.051 44.844H464.825L461.717 46.398H465.491L462.383 47.952H466.157L463.049 49.506H466.601L463.493 51.06H467.267L464.159 52.614H467.933L464.603 53.946L468.377 54.168L465.269 55.5L469.043 55.722L465.713 57.054H469.487L466.157 58.608H470.153L466.601 60.162H470.597L467.267 61.716H471.041L467.711 63.048L471.485 63.27L468.155 64.602L472.151 64.824L468.599 66.156H472.595L469.043 67.71H473.039L469.487 69.264H473.705L469.931 70.596L474.149 70.818L470.597 72.15H474.593L471.041 73.704H475.037L471.485 75.258H475.703L471.929 76.59H476.147L472.373 78.144H476.591L472.817 79.698H477.035L473.261 81.03H477.479L473.927 82.584H478.145L474.371 84.138L478.589 83.916L474.815 85.47L479.033 85.248L475.259 87.024L479.699 86.802L475.925 88.356L480.143 88.134L476.369 89.91L480.587 89.466L477.035 91.242L481.253 90.798L477.479 92.574L481.697 92.13L478.145 93.906L482.141 93.24L479.033 95.016L482.807 94.35L479.921 95.904L483.251 95.016L481.697 96.126L483.473 95.46L479.699 98.568L484.583 96.792L479.699 100.788L486.137 99.456L481.475 102.342L487.025 101.454L482.585 103.896L487.913 103.23L483.251 105.672L488.579 105.006L484.139 107.226L489.245 106.782L484.583 108.78L489.689 108.336L485.249 110.334L490.133 109.89L485.693 111.888L490.799 111.444L486.359 113.442L491.243 113.22L486.803 114.996L491.687 114.774L487.247 116.55L492.131 116.328L487.691 117.882L492.353 117.66L488.135 119.436L492.797 119.214L488.579 120.99L493.019 120.768L488.801 122.544L493.463 122.322L489.245 124.098L493.685 123.876L489.689 125.43L493.907 125.208L490.133 126.984L494.129 126.762L490.577 128.316L494.351 128.094L491.021 129.87L494.795 129.426L491.465 131.202L495.017 130.758L492.131 132.312L495.017 131.868L491.465 134.31L495.905 133.644L491.687 136.086L496.349 135.864L492.797 137.862L496.793 137.64L493.019 139.638H497.237L493.463 141.414L497.681 141.636L493.685 143.412L497.903 144.078L493.907 145.41L498.125 146.52L494.129 147.63L498.125 148.962L493.685 149.628L497.903 152.07L492.797 152.958L496.349 156.288L493.907 154.956L494.351 155.844L495.461 156.732L494.795 156.51L495.239 157.176L492.575 155.844L494.129 158.286L490.355 156.288L491.021 160.95L488.357 157.62L487.469 161.838L486.137 159.174L485.249 162.282L484.139 159.618L483.251 162.282L482.363 159.84L481.475 162.282L480.587 160.062L479.477 162.282L479.033 160.062L477.923 162.06L477.257 159.84L476.147 161.838L475.703 159.84L474.593 161.616L473.927 159.84L472.817 161.394L472.373 159.618L471.263 161.172L470.597 159.618L469.487 160.95L469.043 159.396L467.933 160.95L467.489 159.396L466.157 160.728L465.713 159.174L464.603 160.506L464.159 159.174L462.827 160.506L462.383 158.952L461.273 160.284L460.829 158.952L459.497 160.062L459.053 158.508L457.499 159.84L457.055 158.286L455.501 159.396L455.279 157.842L453.281 158.952V157.176L451.283 158.064L451.505 156.288L449.285 156.954L449.729 155.4L447.509 155.622L448.397 154.29H446.177L447.065 152.958H444.845L445.955 151.626H443.735L444.845 150.294H442.625L443.735 148.962H441.737L442.847 147.852H440.627L441.737 146.742L439.739 146.964L440.849 145.632L438.629 146.076L439.739 144.744L437.741 145.41L438.629 144.3L436.853 144.966L437.741 143.634L435.965 144.744L436.409 143.19L435.077 144.522L435.521 142.746L433.967 144.3L434.189 142.302L432.857 144.3L433.079 142.08L431.747 144.078L431.525 141.858L430.415 144.078L430.193 141.636L429.083 144.078L428.639 141.414L427.529 144.3L427.307 141.414L425.975 144.3L425.531 141.192L424.421 144.3L423.977 141.414L422.867 144.3L422.423 141.414L421.313 144.522L420.869 141.414L419.759 144.522L419.315 141.414L418.205 144.522L417.761 141.636L416.651 144.522L416.207 141.636L415.097 144.744L414.653 141.636L413.543 144.744L413.099 141.636L411.989 144.966L411.323 141.858L410.435 144.966L409.769 141.858L408.881 145.188L408.215 142.08L407.105 145.41L406.661 142.08L405.551 145.632L405.107 141.858L403.775 145.854L403.331 142.302L401.999 146.076L401.555 142.524L400.667 146.298L400.001 143.19L399.335 146.742L398.669 143.634L398.225 146.964L397.559 144.522L397.337 147.408L396.671 145.41L396.893 147.63L396.227 146.298L396.449 148.074L395.561 146.742L396.227 148.296L394.895 146.742L395.783 148.74L394.007 147.186L395.339 149.184L393.341 147.63L394.673 149.85L392.453 148.296L394.229 150.516L391.121 148.74L393.563 151.404L390.011 149.628L392.675 152.514L388.901 150.738L391.787 153.846L387.569 151.848L390.677 155.4L386.237 153.18L389.345 156.954L384.905 154.512L387.569 158.73L383.351 155.622L385.793 160.506L381.797 156.954L383.573 162.06L379.799 158.064L380.909 163.614L377.801 158.952L378.023 164.502L375.803 159.84L375.137 165.168L373.583 160.728L372.695 165.612L371.585 161.172L370.475 165.612L369.587 161.616L368.477 165.834L367.589 161.838L366.479 165.834L365.813 161.838L364.703 165.834L364.037 162.06L362.927 165.834L362.261 162.06L361.151 165.834L360.485 162.06L359.375 165.612L358.709 162.06L357.599 165.612L357.155 162.06L355.823 165.39L355.379 162.06L354.269 165.39L353.825 162.06L352.715 165.39L352.049 161.616L350.939 165.168L350.273 161.394L348.941 164.946L348.497 161.172L346.721 164.502V160.284L344.279 163.836L344.723 159.84L341.615 162.726L342.503 159.174L340.283 161.394V161.172L339.839 161.616L340.949 157.62L337.397 159.618L339.617 156.288L337.175 156.732L336.065 157.176L336.509 156.954H335.843L337.841 155.178L335.177 155.4L337.841 152.958L334.067 152.292L337.175 150.96L334.289 149.184L336.953 148.74L334.511 147.186L337.175 146.742L335.177 144.966H337.619L335.843 142.968H338.063L336.287 141.192L338.507 141.414L336.953 139.86H338.951L337.619 138.306H339.617L338.285 136.752L340.061 136.974L338.951 135.42H340.727L339.617 133.866L341.171 134.088L340.283 132.534H341.837L340.949 130.98L342.503 131.202L341.615 129.648H342.947L342.059 128.538L343.613 128.76L342.725 126.762ZM419.315 96.348L419.981 98.79L420.647 96.348L421.313 98.568L421.979 96.348L422.645 98.124H422.867L423.311 96.348L423.533 96.792L424.865 97.458L425.087 96.792L424.643 95.682L425.087 95.904L424.865 95.46H425.087L424.643 95.238L426.641 94.794L424.421 93.684L426.419 93.24L424.199 92.574L425.975 91.908L423.977 91.464L425.753 90.798L423.533 90.354L425.531 89.244L422.867 89.022L425.087 87.69L422.201 87.468L424.643 86.136L421.535 85.914L423.755 84.582L420.869 84.36L423.311 83.028L420.203 82.806L422.645 81.696L419.537 81.474L422.201 80.142L419.093 79.92L421.757 78.588L418.427 78.366L421.313 77.034L417.983 76.812L420.869 75.48L417.539 75.258L420.425 73.926L417.095 73.704L419.981 72.372L416.873 72.15L419.315 70.818L416.429 70.596L418.871 69.264H416.207L418.205 67.932L415.763 68.154L417.761 66.822L415.319 67.044L417.539 65.046L415.541 65.268L414.875 65.712L415.097 65.268L414.875 65.49L415.319 64.824V64.602L415.097 64.158L414.209 64.824V63.936V65.268L413.765 64.824L414.209 65.712L411.989 65.046L413.321 67.044L411.323 66.378L412.877 68.154L410.657 67.71L412.211 69.486L410.213 69.042L411.767 70.818L409.769 70.596L411.545 72.372L409.103 72.15L411.101 73.704L408.659 73.482L410.879 75.258L408.437 75.036L410.435 77.034L407.993 76.812L410.213 78.588L407.327 78.366L409.769 80.586L406.883 80.142L409.325 82.362L406.439 81.918L409.103 84.138L405.995 83.916L408.659 85.914L405.551 85.692L408.215 87.69L405.329 87.468L407.771 89.244L405.107 89.022L407.549 90.576H405.107L407.105 91.908H405.107L407.105 92.796L404.885 93.018L407.105 93.906L405.329 94.128L405.107 94.794L406.883 94.35L405.995 95.238L406.883 95.46L407.549 94.794V95.46L407.327 95.904L407.993 95.682L407.327 96.126L407.105 97.014H407.327L408.659 95.016V96.792L408.437 97.458L409.769 95.238V97.902L410.879 95.46L411.101 98.346L412.433 95.682L412.655 98.568L413.987 95.682L414.431 98.79L415.541 95.682L416.207 99.012L417.317 95.904L417.539 97.014L417.761 96.126L418.427 99.012L419.315 96.348ZM404.885 94.794L405.329 94.128L403.997 94.35L404.885 94.794ZM423.977 97.236L423.533 96.792L423.755 97.236H423.977ZM422.867 98.568V98.346H422.645L422.867 98.568Z" fill="#FAFAFA"></path><path d="M550.713 162.504L551.601 158.286L549.381 160.728L550.047 157.176L548.271 158.952L548.715 155.844L546.939 157.176L547.383 154.734L545.829 155.622L546.051 153.846L544.275 154.734L544.497 153.18L542.721 154.068L542.943 152.292L541.167 153.18L541.389 151.626L539.613 152.07L540.057 150.738L538.059 151.182L538.503 149.628L536.727 150.294L537.171 148.74L535.173 149.184L535.617 147.852L533.841 148.074L534.285 146.742L532.509 147.186L533.175 145.632L531.399 146.076L531.843 144.744L530.067 144.966L530.733 143.634H528.735L529.401 142.302L527.625 142.524L528.291 141.192H526.071L526.959 139.638L524.739 139.86L525.849 138.306H523.629L524.517 136.974H522.297L523.407 135.642L520.965 135.42L522.297 134.088H519.855L521.187 132.756H518.967L520.299 131.202L517.635 131.424L519.411 129.648H516.303L518.301 128.094L515.193 127.872L517.413 126.54L514.305 126.096L516.747 124.986L513.639 124.32L516.081 123.21L512.973 122.766L515.637 121.656L512.529 120.99L515.193 120.102L512.085 119.436L514.749 118.326L511.641 117.66L514.305 116.772L511.197 116.106L514.083 115.218L510.975 114.552L513.639 113.664L510.531 112.776L513.417 111.888L510.309 111.222L513.195 110.334L510.087 109.446L512.973 108.78L509.865 107.892L512.751 107.226L509.643 106.338L512.529 105.45L509.421 104.562L512.529 103.896L509.199 103.008L512.307 102.342L509.199 101.454L512.085 100.788L508.977 99.678L512.085 99.012L508.977 98.124L511.863 97.458L508.755 96.57L511.863 95.904L508.755 94.794L511.863 94.35L508.755 93.24L511.641 92.574L508.533 91.686L511.641 91.02L508.533 89.91L511.641 89.466L508.533 88.356L511.641 87.912L508.533 86.802L511.419 86.136L508.533 85.026L511.419 84.582L508.533 83.472L511.419 83.028L508.533 81.918L511.641 81.252L508.533 80.142L511.863 79.698L508.533 78.144L511.641 77.7L508.755 76.368L511.863 76.146L508.755 74.814L511.863 74.592L508.977 73.038H512.085L509.199 71.484L512.307 71.262L509.421 69.93L512.307 69.708L509.643 68.154H512.529L509.865 66.6H512.751L510.087 65.046H513.195L510.309 63.492H513.417L510.531 61.938H513.639L510.975 60.162H513.861L511.197 58.608H514.083L511.641 57.054H514.527L511.863 55.5H514.749L512.307 53.946H515.193L512.529 52.392H515.415L512.973 50.616L515.859 50.838L513.417 49.062L516.303 49.284L513.639 47.508L516.525 47.73L514.083 45.954L516.969 46.176L514.527 44.4L517.413 44.622L514.971 42.624L517.857 43.068L515.415 41.07L518.301 41.514L516.081 39.294L518.967 39.96L516.525 37.74L519.411 38.184L517.191 35.964L520.299 36.63L517.857 34.188L520.965 35.076L518.745 32.412L522.075 33.522L519.855 30.414L523.407 32.19L521.631 28.194L524.739 30.636L523.629 26.418L526.293 28.86L525.405 25.086L527.625 27.528L526.959 23.976L528.957 26.418L528.513 22.866L530.289 25.53L529.845 21.978L531.843 24.642L531.399 20.868L533.175 23.754L532.731 19.98L534.507 22.866L534.063 19.092L536.061 22.2L535.617 18.204L537.393 21.312L536.949 17.538L538.947 20.646L538.503 16.65L540.501 19.98L540.057 15.984L541.833 19.314L541.611 15.318L543.387 18.648L542.943 14.874L544.941 18.204L544.497 14.208L546.495 17.538L546.051 13.764L547.827 17.094L547.605 13.32L549.381 16.65L549.159 12.876L550.935 16.206V12.432L552.489 15.762V11.988L554.043 15.318V11.766L555.597 14.874V11.322L557.151 14.43V11.1L558.705 13.986V10.656L560.259 13.542V10.434L561.813 13.098L562.035 9.99L563.367 12.654L563.589 9.546L564.921 12.21L565.143 9.102L566.475 11.766L566.697 8.65799L568.029 11.1V8.214L569.361 10.656L569.583 7.548L570.915 10.212L571.137 7.104L572.469 9.546L572.691 6.438L574.023 9.102L574.245 5.994L575.577 8.65799L575.799 5.328L577.131 7.992L577.353 4.66201L578.463 7.548L578.907 4.218L580.017 7.104L580.461 3.774L581.571 6.65999L582.015 3.108L583.347 6.216L583.569 2.66401L584.901 5.77201L585.345 2.442L586.455 5.54999L587.121 1.998L588.231 5.54999L588.897 1.776L590.229 5.54999L591.339 1.776L592.005 5.54999L593.559 1.998L594.003 5.328L595.557 2.22L595.779 5.54999L597.111 2.66401L597.333 5.77201L598.887 3.108L599.109 5.994L600.663 3.55199L600.885 6.438L602.217 3.996L602.439 6.65999L603.993 4.44L604.215 7.104L605.769 5.106V7.548L607.323 5.54999V7.992L609.099 5.994V8.436L610.875 6.65999V8.88L612.429 7.104V9.324L613.983 7.77001V9.76799L615.537 8.214V10.212L617.091 8.65799V10.656L618.645 9.102V11.1L620.199 9.546V11.544L621.975 10.212L621.753 12.21L623.529 10.656L623.307 12.654L625.083 11.1L624.861 13.098L626.637 11.544L626.415 13.764L628.413 12.21L627.969 14.43L629.967 12.876L629.523 15.096L631.521 13.542L630.855 15.762L633.297 14.43L632.409 16.872L635.073 15.54L633.963 17.982L636.849 16.872L635.739 19.092L638.181 17.982L636.849 20.202L639.513 19.314L638.181 21.312L640.623 20.424L639.291 22.422L641.955 21.534L640.401 23.532L643.287 22.644L641.733 24.642L644.397 23.754L642.843 25.752L645.729 24.864L643.953 26.862L647.061 25.974L645.285 27.972L648.171 27.084L646.395 29.304L649.503 28.194L647.505 30.414L650.835 29.304L648.615 31.524L651.945 30.414L649.725 32.856L653.055 31.746L650.835 34.188L654.387 32.856L651.945 35.298L655.497 34.41L652.833 36.63L656.385 35.742L653.721 38.184L657.495 37.296L654.609 39.738L658.383 38.85L655.497 41.292L659.271 40.626L655.719 43.29L660.381 43.068L656.385 45.066L661.047 45.732L657.495 47.064L661.269 47.73L657.495 48.84L661.269 49.95L657.717 50.838L661.269 51.948L656.607 52.836L660.825 55.722L656.385 55.278L659.271 59.052L654.831 57.72L656.829 62.604L653.055 60.162L653.277 64.824L650.835 61.938L650.391 66.378L648.393 63.048L647.061 67.044L645.951 63.936L644.619 67.044L643.731 64.158L642.399 67.044L641.733 64.38L640.623 67.044L640.179 64.602L639.069 66.822L638.625 64.602L637.515 66.822L636.849 64.602L635.739 67.044L635.295 64.602L634.185 67.044L633.741 64.824L632.631 67.044L632.187 64.824L631.077 67.266L630.633 64.824L629.523 67.488L629.079 65.046L627.747 67.488L627.303 65.046L626.193 67.71L625.749 65.046L624.639 67.932L624.195 65.268L623.085 68.154L622.641 65.268L621.309 68.154L620.865 65.268L619.533 68.376L619.089 65.268L617.535 68.376L617.313 65.046L615.759 68.154L615.537 64.602L613.539 67.71L613.761 64.158L611.319 67.044L611.985 63.492L609.321 66.378L610.209 62.826L607.323 65.268L608.433 61.938L605.325 64.158L606.879 61.05L603.771 62.826L605.325 59.94L601.995 61.494L603.993 58.608L600.441 59.94L602.439 57.498L599.331 58.608L601.107 56.388L598.221 57.276L599.997 55.278L597.333 56.166L598.887 54.39L596.445 55.278L597.777 53.502L595.557 54.612L597.111 52.392L594.669 53.724L595.779 51.726L593.559 53.058L594.669 50.838L592.671 52.614L593.337 50.172L591.561 52.17L592.005 49.728L590.451 51.726L590.895 49.284L589.341 51.282L589.563 48.84L588.231 51.06V48.618L586.899 50.838V48.396L585.789 50.838L585.567 48.618L584.679 50.838L584.235 48.618L583.569 50.838L582.903 48.618L582.681 51.06L581.793 48.84L581.571 51.282L580.461 49.284V51.504L579.351 49.506V51.948L578.241 50.172L578.463 52.392L577.131 50.616L577.575 52.836L576.021 51.282L576.687 53.28L575.133 51.948L575.799 53.946L574.467 52.836L575.133 54.39L573.357 53.502L574.467 55.278L572.691 54.39L573.801 56.166L571.803 55.5L573.357 57.276L571.137 56.61L572.691 58.386L570.471 57.942L572.247 59.496L570.027 59.274L571.803 60.828L569.361 60.606L571.581 62.382L569.361 62.16L571.359 63.492H568.917L571.137 64.824H568.695L571.137 66.156L568.695 66.378L570.915 67.71L568.473 67.932L570.915 69.042L568.473 69.264L570.915 70.596L568.473 70.818L571.137 71.928L568.473 72.372L571.137 73.482L568.473 73.926L571.137 75.036L568.473 75.258L571.359 76.368L568.473 76.812L571.359 77.922L568.473 78.366L571.581 79.476L568.695 79.92L571.581 81.03L568.695 81.474L571.803 82.584L568.695 83.028L572.025 84.138L568.695 84.804L572.025 85.914L568.917 86.358L572.247 87.468L569.139 87.912L572.247 89.022L569.139 89.466L572.469 90.576L569.139 91.02L572.469 92.13L569.361 92.574L572.691 93.684L569.361 94.128L572.913 95.016L569.583 95.682L572.913 96.57L569.805 97.014L573.135 97.902L569.805 98.568L573.357 99.234L570.027 99.9L573.579 100.788L570.249 101.454L573.801 102.12L570.693 102.786L574.023 103.452L570.693 104.34L574.245 104.784L571.359 105.672L574.689 105.894L571.803 107.004H574.911L572.247 108.336L575.355 108.114L572.913 109.446L575.799 109.002L573.579 110.556L576.465 109.89L574.245 111.444L576.909 110.778L574.911 112.332L577.353 111.444L575.799 112.998L578.019 111.888L576.465 113.442L578.463 112.332L576.909 114.552L579.351 112.776L578.241 114.552L579.795 112.998L578.907 115.218L580.461 113.442L579.573 115.662L581.127 113.664L580.461 116.106L582.015 113.886L581.571 116.55L582.903 113.886L582.681 116.772L583.791 114.108V116.994L584.679 114.108L584.901 116.994L585.789 114.108L586.011 116.994L586.677 113.886L587.121 116.772L587.565 113.664L588.231 116.55L588.453 113.442L589.341 116.328L589.119 113.22L590.229 115.662L589.785 112.998L590.895 115.218L590.451 112.554L591.561 114.33L590.895 112.332L592.671 114.552L591.561 111.888L594.003 114.552L592.449 111L594.669 113.22L593.115 110.334L595.779 112.776L593.781 109.668L597.111 112.11L594.669 108.558L598.221 111.222L595.779 107.448L599.553 110.334L596.889 106.116L601.107 109.224L598.221 104.562L602.439 108.114L599.775 103.23L604.215 107.004L601.551 101.676L605.769 106.116L603.771 100.122L607.767 105.006L606.213 98.79L609.765 104.34L609.099 97.68L611.763 103.674L612.207 96.792L614.205 102.786L615.093 96.57L616.425 102.12L617.535 96.348L618.423 101.676L619.533 96.348L620.421 101.454L621.753 96.348L622.419 101.454L623.529 96.57L624.195 101.454L625.527 96.792L625.971 101.454L627.303 97.014L627.747 101.454L629.079 97.236L629.523 101.676L630.855 97.458L631.299 101.676L632.631 97.68L633.075 101.676L634.185 97.902L634.851 101.676L635.739 98.124L636.405 102.12L637.515 98.346L638.181 102.342L639.291 98.568L639.957 102.564L641.289 99.012L641.733 102.786L643.287 99.234L643.509 103.23L645.285 99.678V103.674L647.505 100.344L647.061 104.118L649.503 101.232L648.837 105.894L653.499 103.008L651.945 107.448L656.829 106.116L653.943 109.668H659.049L655.497 112.11L659.715 113.664L656.607 114.774L659.715 116.106L656.607 116.772L659.493 118.548L656.385 118.992L659.049 120.768L656.163 120.99L658.161 122.988L655.497 122.766L657.273 124.986L654.831 124.764L656.385 126.984L654.165 126.54L655.497 128.316L653.277 127.872L654.387 129.87L652.389 129.426L653.499 131.202L651.501 130.758L652.389 132.756L650.613 132.312L651.279 134.088L649.725 133.644L650.391 135.42L648.837 134.976L649.281 136.752L647.727 136.308L648.171 138.084L646.617 137.64L647.061 139.416L645.729 138.972L645.951 140.748L644.619 140.304V142.08L643.287 141.414L643.509 143.19L642.177 142.746V144.522L641.067 143.856L640.845 145.632L639.513 144.966L639.291 146.964L638.181 146.076L637.737 148.074L636.627 146.964L636.405 148.962L635.295 147.852L634.851 149.85L633.963 148.74L633.297 150.516L632.409 149.406L631.965 151.404L631.077 150.072L630.411 152.07L629.523 150.738L629.079 152.958L628.191 151.404L627.525 153.624L626.637 152.07L626.193 154.29L625.083 152.736L624.639 155.178L623.751 153.18L623.307 155.844L622.197 153.846L621.753 156.51L620.643 154.512L620.421 157.176L619.311 154.956L618.867 157.842L617.757 155.622L617.313 158.508L616.203 156.066L615.981 158.952L614.871 156.51L614.427 159.618L613.317 157.176L612.873 160.062L611.763 157.62L611.319 160.728L610.209 158.064L609.987 161.172L608.655 158.508L608.433 161.616L607.323 158.952L606.879 162.06L605.769 159.174L605.325 162.504L604.215 159.618L603.771 162.948L602.661 160.062L602.217 163.392L601.107 160.506L600.663 163.614L599.553 160.728L599.109 164.058L597.999 161.172L597.555 164.502L596.445 161.394L596.001 164.946L594.891 161.838L594.447 165.39L593.337 162.282L592.893 165.612L591.783 162.504L591.339 166.056L590.229 162.948L589.785 166.5L588.675 163.17L588.231 166.944L587.121 163.614L586.455 167.388L585.567 163.836L584.901 167.832L583.791 164.058L582.903 168.276L582.015 163.836L580.905 168.498L580.239 164.058L578.685 168.72L578.463 164.502L576.687 168.72V164.724L575.133 168.72L574.911 164.502L573.357 168.72V164.502L571.581 168.72V164.502L570.027 168.72V164.28L568.251 168.498L568.473 164.058L566.697 168.276V163.836L564.921 168.054L565.143 163.392L563.145 167.61L563.367 163.17L561.369 167.388L561.813 162.726L559.815 166.944L560.259 162.282L558.039 166.278L558.483 161.838L556.263 165.834L556.929 161.172L554.487 165.168L555.153 160.95L552.711 164.502L553.377 162.06L552.045 164.058L553.155 159.396L550.713 162.504Z" fill="#FAFAFA"></path><path d="M680.005 128.538L683.113 128.094L680.227 126.984L683.113 126.54L680.227 125.43L683.113 124.986L680.227 123.876L683.113 123.432L680.449 122.322L683.113 121.878L680.449 120.768L683.113 120.324L680.449 119.214L683.113 118.77L680.449 117.66L683.113 117.216L680.449 116.106L683.113 115.662L680.449 114.552L683.113 114.108L680.449 112.998L683.113 112.554L680.449 111.444L683.335 111L680.449 109.89L683.335 109.224L680.671 108.114L683.335 107.67L680.671 106.56L683.335 106.116L680.671 105.006L683.335 104.562L680.893 103.452L683.557 103.008L680.893 101.898L683.557 101.454L680.893 100.344L683.557 99.9L681.115 98.79L683.557 98.346L681.115 97.236L683.557 96.792L681.115 95.682L683.557 95.238L681.115 94.128L683.557 93.684L681.337 92.574L683.779 92.13L681.337 91.02L683.779 90.576L681.337 89.466L683.779 89.022L681.337 87.912L683.779 87.468L681.337 86.358L683.779 85.914L681.337 84.804L683.779 84.36L681.559 83.25L683.779 82.584L681.559 81.696L683.779 81.03L681.559 79.92L683.779 79.476L681.559 78.366L684.001 77.922L681.781 76.812L684.001 76.368L681.781 75.258L684.001 74.814L681.781 73.704L684.001 73.26L681.781 72.15L684.001 71.706L682.003 70.596L684.001 70.152L682.003 69.042L684.223 68.598L682.003 67.488L684.223 67.044L682.003 65.934L684.223 65.49L682.225 64.38L684.223 63.936L682.225 62.826L684.223 62.382L682.225 61.272L684.223 60.828L682.225 59.718L684.223 59.274L682.225 58.164L684.223 57.72L682.225 56.61L684.223 56.166L682.225 55.056L684.223 54.612L682.225 53.502L684.223 52.836L682.003 51.726L684.223 51.282L682.003 50.172L684.223 49.728L682.003 48.396L684.001 47.952L682.003 46.842L684.001 46.398L681.781 45.288L684.001 44.844L681.781 43.734L684.001 43.29L681.559 42.18L683.779 41.736L681.337 40.626L683.779 40.182L681.115 38.85L683.557 38.406L680.893 37.296L683.335 36.852L680.671 35.742L683.335 35.298L680.449 34.188L683.113 33.744L680.227 32.634L683.113 32.19L680.005 31.08L682.891 30.636L680.005 29.304L682.891 28.86L679.783 27.75L682.891 27.306L679.783 25.974L683.113 25.53L679.783 24.198L683.113 23.976L680.005 22.422L683.335 22.2L680.227 20.646L683.557 20.424L680.671 18.648L685.111 18.87L681.337 15.318L685.999 16.206L683.335 12.21L687.109 13.986L685.333 9.99L688.663 12.21L687.775 8.214L690.439 10.878L690.217 7.104L692.215 9.99L692.659 6.438L694.213 9.324L694.879 5.994L696.211 8.65799L697.099 5.77201L697.987 8.436L699.097 5.77201L699.985 8.214L700.873 5.77201L701.539 7.992L702.649 5.77201L703.315 7.992L704.425 5.994L704.869 7.992L706.201 5.994L706.645 7.992L707.755 5.994L708.199 7.992L709.531 5.77201L709.975 7.992L711.085 5.77201L711.529 7.77001L712.861 5.77201L713.083 7.77001L714.415 5.54999L714.859 7.77001L715.969 5.328L716.413 7.548L717.523 5.106L718.189 7.77001L719.521 4.884L719.965 7.77001L721.519 4.884L721.741 7.77001L723.517 4.884L723.739 7.992L725.737 5.106L725.515 8.214L727.735 5.328L727.291 9.546L731.065 6.216L729.733 10.434L733.729 8.436L731.287 12.432L737.059 11.322L733.507 14.874L738.835 15.318L735.505 17.094L739.501 17.538L736.171 19.092L739.945 19.98L736.615 21.09L740.167 22.2L736.837 23.088L740.167 24.42L737.059 25.086L740.167 26.196L737.281 26.862L739.945 28.194L737.281 28.638L739.945 29.748L737.281 30.192L739.723 31.302L737.281 31.968L739.723 33.078L737.281 33.522L739.723 34.632L737.281 35.076L739.723 36.186L737.059 36.63L739.723 37.74L737.281 38.184L739.723 39.516L737.281 39.96L739.723 41.07L737.281 41.514L739.723 42.624L737.281 43.068L739.945 44.178L737.503 44.622L740.167 45.732L737.503 46.398L740.167 47.508L737.725 47.952L740.389 49.062L737.725 49.506L740.611 50.616L737.947 51.06L740.833 52.17L737.947 52.614L741.055 53.946L738.169 54.39L741.277 55.5L738.169 55.944L741.499 57.054L738.391 57.498L741.721 58.608L738.391 59.052L741.721 60.162L738.391 60.606L741.943 61.938L738.391 62.382L741.943 63.714H741.721L745.051 65.712L741.943 62.16L746.161 64.38L742.831 60.828L747.271 63.048L743.941 59.496L748.159 61.716L744.829 58.164L750.157 60.828L746.383 55.944L751.267 59.052L748.159 54.39L751.045 56.388L748.825 53.724L752.155 55.722L749.713 52.614L753.265 54.834L750.601 51.726L754.153 53.724L751.489 50.616L755.263 52.614L752.377 49.506L756.151 51.282L753.487 48.174L757.039 50.172L754.375 47.064L757.927 48.84L755.263 45.732L759.037 47.508L756.151 44.622L759.703 46.176L757.039 43.29L760.591 44.844L757.927 41.958L761.479 43.512L758.815 40.626L762.367 42.18L759.481 39.294L763.255 40.848L760.369 37.74L764.143 39.516L761.257 36.408L764.809 38.184L761.923 34.854L765.697 36.63L762.811 33.522L766.585 35.298L763.699 31.968L767.473 33.966L764.365 30.636L768.361 32.412L765.253 29.082L769.249 31.08L766.363 27.528L770.359 29.748L767.251 25.974L771.469 28.416L768.583 24.42L772.801 27.084L769.915 22.866L772.579 24.864L770.581 22.2L773.245 23.754L771.247 21.312L775.021 23.31L772.135 20.202L775.909 21.978L773.245 18.87L777.019 20.868L774.355 17.538L778.129 19.536L775.465 16.206L779.239 18.204L776.575 14.874L780.349 16.872L777.907 13.32L781.459 15.54L779.239 11.988L783.013 14.652L780.793 10.212L784.789 13.098L782.791 8.436L786.565 11.766L785.011 6.65999L788.563 10.434L787.675 5.106L790.561 9.324V4.218L792.559 8.214L793.003 3.55199L794.557 7.548L795.223 3.108L796.555 7.104L797.443 3.108L798.331 6.882L799.441 2.886L800.107 6.65999L801.439 3.108L801.883 6.438L802.993 3.108L803.659 6.65999L804.769 3.108L805.435 6.438L806.545 3.33L806.989 6.438L808.099 3.33L808.543 6.65999L809.875 3.55199L810.319 6.65999L811.429 3.55199L811.873 6.65999L812.983 3.774L813.427 6.882L814.759 3.996L815.203 6.882L816.313 3.996L816.757 7.104L817.867 4.218L818.311 7.104L819.421 4.44L820.087 7.326L821.197 4.66201L821.641 7.548L822.973 4.884L823.417 7.77001L824.971 5.106L825.193 8.214L827.191 5.54999L826.969 9.102L830.077 6.65999L829.189 9.99L832.519 8.436L831.187 11.766L835.405 10.878L833.185 13.764L836.959 14.208L834.739 15.762L837.625 16.428L835.183 17.76L838.069 18.87L835.627 19.758L838.291 21.09L835.849 21.756L838.291 23.088L836.071 23.754L838.291 25.086L836.071 25.53L838.069 26.862L836.293 27.306L838.069 28.416L836.071 28.86L838.069 29.97L836.071 30.414L837.847 31.524L836.071 32.19L837.847 33.3L836.071 33.744L837.847 34.854L836.071 35.298L837.625 36.408L836.071 36.852L837.625 37.962L835.849 38.406L837.625 39.516L835.849 39.96L837.403 41.292L835.849 41.736L837.403 42.846L835.849 43.29L837.181 44.4L835.627 44.844L837.181 45.954L835.627 46.398L836.959 47.508L835.405 47.952L836.959 49.284L835.627 49.728L836.959 50.838L835.405 51.282L836.737 52.392L835.405 52.836L836.737 53.946L835.405 54.612L836.515 55.722L835.405 56.166L836.515 57.276L835.183 57.72L836.515 58.83L835.183 59.274L836.293 60.384L835.183 60.828L836.293 61.938L835.183 62.382L836.293 63.492L835.183 63.936L836.071 65.046L835.183 65.49L836.071 66.6L834.961 67.266L836.071 68.376L834.961 68.82L836.071 69.93L834.961 70.374L836.071 71.484L834.961 71.928L836.071 73.038L834.961 73.482L836.071 74.592L835.183 75.036L836.071 76.146L835.183 76.59L836.293 77.7L835.183 78.144L836.293 79.476L835.183 79.92L836.293 81.03L835.183 81.474L836.515 82.584L835.405 83.028L836.515 84.138L835.405 84.582L836.737 85.692L835.405 86.136L836.737 87.246L835.627 87.69L836.959 88.8L835.627 89.244L837.181 90.354L835.627 90.798L837.181 92.13L835.849 92.574L837.403 93.684L835.849 94.128L837.625 95.238L836.071 95.682L837.847 96.792L836.071 97.236L838.069 98.346L836.293 98.79L838.291 99.9L836.293 100.344L838.513 101.454L836.515 101.898L838.735 103.23L836.737 103.674L838.957 104.784L836.737 105.228L839.179 106.338L836.959 106.782L839.401 107.892L837.181 108.336L839.623 109.446L837.181 109.89L839.845 111L837.403 111.444L840.289 112.554L837.625 112.998L840.511 114.108L837.625 114.552L840.733 115.884L837.847 116.328L840.955 117.438L838.069 117.882L841.177 118.992L838.069 119.436L841.399 120.768L838.291 121.212L841.621 122.322L838.513 122.766L841.843 123.876L838.513 124.32L842.065 125.43L838.735 125.874L842.287 126.984L838.735 127.428L842.287 128.538L838.735 128.982L842.509 130.092L838.735 130.536L842.509 131.646L838.735 132.09L842.509 133.2L838.957 133.866L842.509 134.976L838.735 135.42L842.509 136.53L838.735 136.974L842.509 138.084L838.735 138.528L842.509 139.638L838.291 140.082L842.287 141.636L838.291 142.08L842.065 143.412L838.069 143.856L841.843 145.41L837.625 145.854L841.621 147.63H837.403L841.177 149.628H836.071L840.511 152.958L835.405 152.292L838.735 156.066L834.739 154.512L837.403 158.064L833.185 155.844L834.961 160.506L831.409 157.176L831.853 162.282L829.189 158.73L828.745 163.17L827.191 159.618L826.303 163.614L824.971 160.284L823.861 163.836L822.973 160.506L821.863 163.836L821.197 160.728L820.087 163.836L819.421 160.95L818.311 163.836L817.645 160.95L816.535 163.614L815.869 160.95L814.759 163.392L814.315 160.728L813.205 163.392L812.539 160.728L811.429 163.17L810.985 160.728L809.875 163.17L809.431 160.728L808.099 162.948L807.655 160.506L806.545 162.948L806.101 160.506L804.991 162.726L804.547 160.506L803.215 162.726L802.771 160.284L801.661 162.504L801.217 160.284L799.885 162.504L799.441 160.062L797.887 162.504L797.443 159.84L795.889 162.06L795.667 159.618L793.891 161.838V158.73L790.783 161.172L791.671 157.842L787.675 158.952L789.229 156.066L785.011 156.732L787.453 154.068L783.235 153.18L785.677 151.626L782.347 150.96L785.011 149.628L781.681 148.518L784.345 147.63L781.237 146.52L783.901 145.632L781.015 144.3L783.679 143.856L780.793 142.524L783.457 141.858L780.571 140.748L783.235 140.082L780.349 138.972L783.013 138.528L780.127 137.418L782.791 136.752L779.905 135.642L782.791 135.198L779.683 134.088L782.569 133.644L779.461 132.534L782.569 132.09L779.239 130.98L782.347 130.536L779.017 129.204L782.347 128.76L778.795 127.65L782.125 127.206L778.795 126.096L782.125 125.652L778.573 124.542L782.125 124.098L778.573 122.988L782.125 122.544L778.573 121.212L782.125 120.768L778.573 119.658L782.125 119.214L778.573 118.104L782.125 117.66L778.573 116.55L782.125 116.106L778.795 114.996L782.347 114.552L778.795 113.442L782.347 112.776L779.017 111.666L782.347 111.222L779.239 110.112L782.569 109.668L779.461 108.558L782.569 108.114L779.683 107.004L782.569 106.56L779.905 105.672L782.569 105.228L779.905 104.34L782.347 103.896L780.127 103.23L782.347 102.564L780.127 102.12L782.569 101.232L780.793 100.788L780.349 101.01V100.788L780.127 100.566L780.571 100.344L780.793 100.122V99.9L780.127 100.122L780.349 98.79V98.346L779.683 99.9V100.344L779.461 100.122V100.344L779.239 99.9L778.129 99.012L778.573 101.232L777.019 99.9L777.463 101.898L775.909 101.01L776.575 102.786L774.799 101.898L775.687 103.896L773.911 103.008L774.799 105.006L772.801 104.118L773.689 106.338L771.691 105.45L772.579 107.67L770.803 106.782L771.691 108.78L769.693 108.114L770.581 110.112L768.805 109.224L769.693 111.444L767.917 110.556L768.583 112.554L766.807 111.888L767.695 113.886L765.919 112.998L766.585 114.996L764.809 114.33L765.475 116.55L763.477 115.662L764.143 117.882L762.589 117.216L763.033 118.992L761.479 118.326L762.145 120.102L760.591 119.436L761.035 121.212L759.481 120.546L760.147 122.544L758.593 121.878L759.259 123.654L757.705 123.21L758.371 124.986L756.817 124.542L757.483 126.318L755.929 125.874L756.595 127.65L755.041 127.206L755.929 128.982L754.153 128.538L755.041 130.536L753.487 129.87L754.153 131.868L752.599 131.424L753.487 133.422L751.711 132.756L752.599 134.754L750.823 134.088L751.933 136.308L749.935 135.642L751.045 137.862L749.047 136.974L750.157 139.194L748.159 138.306L749.269 140.748L747.271 139.638L748.381 142.302L746.605 141.192L747.493 143.412L745.717 142.524L746.827 144.744L744.607 143.634L746.161 146.076L743.719 145.188L745.273 147.63L742.831 146.52L744.385 149.184L741.943 147.852L743.497 150.516L740.833 149.184L742.387 152.07L739.723 150.516L741.277 153.624L738.613 151.848L739.945 154.956L737.281 153.18L738.613 156.51L735.949 154.512L737.059 157.842L734.395 155.622L735.061 159.396L732.619 156.732L733.063 160.506L730.843 157.842L731.065 161.616L729.067 158.73L728.845 162.504L727.291 159.396L726.847 162.948L725.515 160.062L724.849 163.614L723.739 160.506L722.851 163.836L721.963 160.728L720.853 164.058L720.187 160.95L719.077 164.28L718.411 161.172L717.301 164.502L716.635 161.394L715.525 164.502L715.081 161.394L713.971 164.724L713.305 161.394L711.973 164.724L711.529 161.616L710.419 164.724L709.753 161.616L708.643 164.946L707.977 161.616L706.867 164.946L706.201 161.616L705.091 164.946L704.425 161.616L703.093 164.946L702.649 161.394L701.317 164.724L700.873 161.394L699.319 164.724L699.097 160.95L697.321 164.502L697.099 160.728L695.323 164.058V160.284L693.103 163.614L693.325 159.84L691.105 162.948L691.771 158.286L687.775 161.394L689.773 156.954L684.667 158.286L687.553 154.956L682.669 155.4L685.999 152.736L681.337 152.292L684.889 150.516L680.893 149.628L684.223 148.518L680.671 147.408L683.779 146.742L680.449 145.41L683.557 144.744L680.449 143.634L683.335 143.19L680.449 142.08L683.113 141.414L680.227 140.304L683.113 139.86L680.227 138.75L683.113 138.306L680.227 137.196L683.113 136.752L680.227 135.642L683.113 135.198L680.005 134.088L682.891 133.644L680.005 132.534L682.891 132.09L680.005 130.98L681.559 130.758L680.005 130.314L683.113 129.87L680.005 128.538ZM742.165 65.268H741.499L744.163 66.822L741.499 63.714L738.613 64.158L740.389 64.602L740.611 64.824L742.165 65.268ZM739.501 65.712L739.945 66.156L741.943 66.6L741.055 65.49L738.835 65.712L739.723 65.934L739.501 65.712ZM741.277 66.822L743.053 68.154L742.165 66.822H741.277ZM739.501 67.266L741.055 67.71L740.611 67.044L739.279 67.266H739.501ZM741.721 68.82H741.943L741.499 68.154L741.055 68.376L741.721 68.82Z" fill="#FAFAFA"></path><path d="M863.948 135.198L867.056 134.754L864.392 133.644L867.5 133.2L864.836 132.09L867.722 131.646L865.502 130.536L868.166 129.87L865.946 128.982L868.166 128.538L865.946 127.428L868.166 126.762L866.168 125.652L868.388 125.208L866.39 124.098L868.388 123.654L866.612 122.544L868.61 122.1L866.834 120.99L868.832 120.546L867.056 119.436L868.832 118.992L867.278 117.882L869.054 117.438L867.5 116.328L869.054 115.884L867.722 114.774L869.276 114.33L867.722 113.22L869.276 112.554L867.944 111.444L869.498 111L868.166 109.89L869.498 109.446L868.388 108.336L869.72 107.892L868.61 106.782L869.72 106.338L868.61 105.228L869.72 104.784L868.832 103.674L869.942 103.23L869.054 102.12L869.942 101.676L869.054 100.566L869.942 100.122L869.276 99.012L870.164 98.346L869.276 97.458L870.164 96.792L869.276 95.682L870.164 95.238L869.276 94.128L870.164 93.684L869.276 92.574L870.164 92.13L869.276 91.02L870.164 90.576L869.276 89.466L869.942 89.022L869.054 87.912L869.942 87.468L869.054 86.358L869.942 85.914L869.054 84.804L869.942 84.36L869.054 83.25L869.942 82.806L869.054 81.474L869.942 81.03L869.054 79.92L869.942 79.476L869.054 78.366L869.942 77.922L869.054 76.812L869.942 76.368L869.054 75.258L869.942 74.814L869.276 73.704L870.164 73.26L869.276 72.15L870.164 71.706L869.498 70.596L870.164 69.93L869.498 69.042L870.386 68.376L869.72 67.266L870.386 66.822L869.72 65.712L870.386 65.268L869.942 64.158L870.386 63.714L869.942 62.604L870.608 62.16L869.942 61.05L870.608 60.606L870.164 59.496L870.608 59.052L870.164 57.942L870.608 57.498L870.164 56.388L870.608 55.944L870.164 54.834L870.608 54.39L870.164 53.28L870.608 52.836L870.164 51.504L870.608 51.282L869.942 49.95L870.386 49.506L869.72 48.396L870.386 47.952L869.498 46.842L870.164 46.398L869.276 45.288L869.942 44.844L869.054 43.734L869.942 43.29L868.61 41.958L869.72 41.514L868.166 40.182L869.276 39.738L867.722 38.628L869.054 38.184L867.278 36.852L868.832 36.408L866.834 35.298L868.61 34.854L866.39 33.522L868.388 33.078L865.946 31.968L868.166 31.524L865.502 30.192L867.944 29.748L865.28 28.416L867.722 27.972L864.836 26.64L867.722 26.196L864.614 24.864L867.722 24.42L864.614 22.866L867.722 22.644L864.392 21.09L867.944 20.868L864.614 18.87H868.388L864.836 16.428L869.054 16.872L865.502 13.764L870.608 15.096L867.5 9.76799L871.94 12.876L870.386 7.104L874.16 10.434L873.05 4.884L876.38 9.324L876.602 3.33L878.6 7.77001L879.488 2.442L880.598 7.104L881.708 2.22L882.596 6.438L883.928 1.998L884.594 5.994L885.926 1.776L886.37 5.77201L887.702 1.776L888.146 5.77201L889.256 1.776L889.922 5.77201L891.032 1.776L891.476 5.77201L892.808 1.776L893.252 5.77201L894.362 1.998L895.028 5.994L896.138 2.22L896.582 6.216L897.914 2.442L898.358 5.994L899.468 2.66401L899.912 6.216L901.022 2.886L901.466 6.438L902.798 3.108L903.242 6.438L904.352 3.33L904.796 6.65999L905.906 3.774L906.35 6.882L907.46 3.996L907.904 6.882L909.014 4.218L909.68 7.104L910.79 4.44L911.234 7.326L912.344 4.66201L912.788 7.326L913.898 4.884L914.342 7.548L915.452 5.106L916.118 7.548L917.228 5.328L917.672 7.548L918.782 5.328L919.226 7.77001L920.336 5.328L920.78 7.77001L921.89 5.328L922.334 7.548L923.444 5.328L924.11 7.548L925.22 5.106L925.664 7.548L926.774 5.106L927.218 7.548L928.328 4.884L928.772 7.326L929.882 4.884L930.326 7.326L931.658 4.66201L932.102 7.326L933.212 4.66201L933.656 7.104L934.766 4.44L935.21 7.104L936.32 4.44L936.764 7.104L938.096 4.44L938.54 7.326L939.65 4.218L940.316 7.104L941.426 4.218L941.87 7.104L942.98 4.218L943.424 7.104L944.534 4.218L944.978 7.104L946.31 4.218L946.754 7.104L947.864 4.218L948.308 7.104L949.418 4.218L949.862 7.104L950.972 4.218L951.416 7.104L952.748 4.218L953.192 7.104L954.302 4.218L954.746 6.882L955.856 4.218L956.3 6.882L957.41 3.996L958.076 6.882L959.186 3.774L959.63 6.65999L960.74 3.774L961.184 6.65999L962.294 3.55199L962.738 6.438L964.07 3.108L964.514 6.216L965.624 2.886L966.068 6.216L967.178 2.66401L967.622 5.994L968.954 2.22L969.176 5.77201L970.508 1.776L970.952 5.54999L972.284 1.332L972.728 5.328L974.06 0.888002L974.504 5.328L976.058 0.443994L976.28 5.54999L978.056 0.221997V5.77201L980.498 0L980.054 5.994L982.94 0.221997L982.052 6.65999L985.826 0.443994L984.05 6.882L988.268 1.11L985.382 9.76799L993.152 3.55199L988.046 11.322L996.926 7.548L989.822 13.764L1000.48 12.21L991.598 17.094L1002.03 18.204L994.928 19.98L1002.7 20.646L995.372 22.2L1003.14 23.31L996.038 24.42L1003.36 25.53L996.704 26.418L1003.36 27.75L997.148 28.194L1003.59 29.526L996.926 29.97L1003.81 31.524L996.482 31.968L1003.81 33.744L996.038 33.966L1003.81 36.408L995.594 36.186L1003.59 39.072L995.372 38.406L1003.14 41.958L992.042 40.182L1001.14 47.952L990.71 43.956L997.814 53.058L988.268 46.842L993.152 57.72L986.27 48.84L987.602 60.384L984.05 52.392L984.716 61.272L981.83 53.058V61.716L979.832 53.946L979.166 62.16L977.834 54.39L976.946 62.16L975.836 54.834L974.726 61.938L974.06 55.278L972.728 61.938L972.284 55.5L970.952 61.716L970.73 55.722L969.398 61.272L969.176 55.722L968.066 61.05L967.4 55.056L966.29 60.828L965.846 55.056L964.514 60.606L964.07 54.834L962.96 60.384L962.516 54.834L961.184 59.94L960.962 54.612L959.63 59.718L959.186 54.39L958.076 59.274L957.632 54.168L956.522 59.052L956.078 53.946L954.968 58.608L954.524 53.724L953.192 58.386L952.97 53.502L951.638 57.942L951.194 53.502L950.084 57.72L949.64 53.28L948.53 57.276L948.086 53.058L946.976 57.054L946.532 52.836L945.422 56.832L944.978 52.836L943.868 56.61L943.202 52.614L942.092 56.388L941.648 52.614L940.538 56.166L940.094 52.392L938.984 55.944L938.54 52.392L937.43 55.722L936.986 52.17L935.876 55.5L935.432 52.17L934.544 55.5L933.878 52.392L932.99 55.278L932.324 52.17L931.436 55.278L930.77 51.948L929.882 55.278L929.216 52.392L928.55 55.056L927.884 53.058L927.662 55.056L927.218 54.39L925.22 52.17L925.664 56.166L925.22 55.722H924.998L925.22 55.944L922.334 55.5L924.332 57.498L922.112 57.72L924.776 59.052L924.11 59.274H924.332L923.888 59.496H924.776L923 61.494L925.442 61.05L925.886 60.828V61.05L925.664 63.048L927.44 61.272V63.27L928.772 61.716L928.994 63.714L930.326 61.938L930.548 64.158L931.88 62.16L932.102 64.158L933.434 62.382L933.656 64.38L934.988 62.604L935.432 64.602L936.542 62.826L936.986 64.824L938.096 63.048L938.54 64.824L939.65 63.492L940.094 65.046L941.204 63.714L941.648 65.268L942.758 64.158L943.424 65.49L944.534 64.38L944.978 65.712L946.088 64.824L946.532 65.934L947.642 65.046L948.086 66.156L949.196 65.49L949.64 66.378L950.972 65.934L951.416 66.822L952.526 66.378L953.192 67.266H954.302L954.746 67.932L955.856 68.154L956.078 68.82L957.188 69.042L957.632 69.486L958.52 69.93L958.964 70.374L959.852 70.596L960.296 71.262L961.184 71.484L961.628 71.928L962.96 72.594L964.07 73.038L964.292 73.482L965.402 73.926L965.624 74.148L966.734 74.592L966.956 74.814L968.288 75.258L968.51 75.48L969.842 75.924V76.146L971.174 76.368L971.396 76.812L972.728 77.034L972.95 77.7H974.282V78.366L975.836 78.144V79.032L977.39 78.588L977.168 79.698L978.944 79.254L978.722 80.364L980.498 79.92L980.276 81.03L982.052 80.364L981.608 81.696L983.384 81.03L983.162 82.362L984.938 81.696L984.494 83.25L986.492 82.362L985.826 83.916L987.824 83.028L987.38 84.804L989.378 83.694L988.712 85.47L990.932 84.582L990.044 86.358L992.264 85.248L991.598 87.246L993.818 85.914L992.93 87.912L995.372 86.802L994.262 88.8L996.704 87.468L995.594 89.688L998.258 88.356L997.148 90.576L999.812 89.244L998.48 91.686L1001.37 90.132L999.146 93.684L1003.81 92.574L1000.7 95.46L1005.36 95.682L1002.48 97.014L1006.03 97.458L1003.14 98.79L1006.69 99.234L1003.59 100.344L1007.36 101.01L1004.03 102.12L1007.8 102.786L1004.47 103.674L1008.25 104.562L1004.7 105.45L1008.47 106.338L1004.92 107.226L1008.69 108.114L1005.14 109.002L1008.91 110.112L1005.14 110.778L1008.91 112.11L1005.14 112.776L1008.91 114.108L1005.14 114.552L1008.91 116.106L1005.14 116.328L1008.69 118.104L1004.92 118.326L1008.47 120.102H1004.47L1008.25 122.1H1004.25L1007.8 124.32L1003.81 123.876L1007.36 126.318L1003.36 125.652L1006.69 128.316L1002.7 127.428L1006.03 130.092L1002.25 129.204L1005.14 131.868L1001.59 130.758L1004.47 133.422L1000.92 132.312L1003.59 135.198L1000.03 134.088L1002.7 136.752L999.146 135.42L1001.59 138.528L998.258 136.974L1000.48 140.082L997.148 138.528L999.368 141.636L995.816 139.86L997.814 143.634L994.484 141.414L996.26 145.188L993.152 142.968L994.706 146.742L991.376 144.3L992.93 148.296L989.6 145.632L990.71 150.072L988.046 147.186L988.712 151.182L986.492 148.296L986.714 151.848L984.938 149.184L985.16 152.514L983.384 149.85V153.18L981.83 150.294V153.624L980.276 150.96L980.054 154.068L978.722 151.404L978.5 154.512L977.168 151.848L976.946 154.956L975.614 152.292L975.392 155.4L974.06 152.736L973.616 155.622L972.506 153.18L972.062 156.066L970.952 153.402L970.508 156.288L969.398 153.846L968.954 156.732L967.844 154.29L967.4 157.176L966.29 154.734L965.846 157.62L964.736 154.956L964.292 157.842L963.182 155.4L962.738 158.286L961.628 155.844L961.184 158.73L960.074 156.066L959.63 158.952L958.52 156.51L958.076 159.396L956.966 156.732L956.522 159.618L955.412 156.954L954.968 159.84L953.858 157.398L953.192 160.062L952.304 157.62L951.638 160.284L950.75 157.62L950.084 160.284L949.196 157.842L948.53 160.506L947.642 158.064L946.976 160.506L945.866 158.064L945.2 160.284L944.312 158.286L943.646 160.284L942.758 158.286L942.092 160.284L941.204 158.286L940.316 160.062L939.65 158.286L938.762 160.062L937.874 158.286L937.208 159.84L936.32 158.508L935.432 159.84L934.766 158.508L933.878 159.618L933.212 158.508L932.102 159.396L931.658 158.508L930.548 159.396L929.882 158.508L928.772 159.174L928.328 158.286L926.996 158.952L926.552 158.286L925.442 158.952L924.776 158.286L923.666 158.952L923.222 158.286L922.112 158.952L921.668 158.286L920.336 158.952L919.892 158.286L918.782 158.952L918.338 158.286L917.006 159.174L916.562 158.508L915.452 159.396L914.786 158.508L913.676 159.396L913.232 158.73L912.122 159.618L911.678 158.73L910.346 159.84L909.902 158.952L908.792 160.062L908.348 158.952L907.238 160.062L906.794 158.952L905.684 160.284L905.24 159.174L904.13 160.284L903.464 159.174L902.354 160.284L901.91 159.174L900.8 160.284L900.356 159.174L899.246 160.062L898.802 158.952L897.692 160.062L897.026 158.952L895.916 159.84L895.472 158.73L894.362 159.618L893.918 158.73L892.808 159.618L892.364 158.73L891.254 159.396L890.81 158.508L889.478 159.174L889.034 158.508L887.924 159.174L887.48 158.508L886.37 159.174L885.926 158.508L884.816 159.174L884.372 158.286L883.04 159.174L882.596 158.286L881.264 159.396L880.82 158.286L879.488 159.396L879.044 158.064L877.268 159.174V157.62L874.826 158.508L875.492 156.51L871.94 156.732L873.05 154.734L869.498 154.956L871.496 152.736L867.5 151.404L869.72 150.072L866.39 149.406L868.832 148.296L865.502 147.186L868.388 146.298L864.836 144.966L867.722 144.3L864.392 142.968L867.5 142.302L864.17 140.97L867.056 140.526L863.726 139.194L866.834 138.75L863.504 137.418L864.836 137.196L863.282 136.974L867.056 136.53L863.948 135.198ZM944.312 114.33L946.754 114.552L944.534 112.776L946.088 112.998L944.534 112.11L946.31 111.888L944.312 111.444L946.088 111L944.09 110.556L946.088 109.89L943.868 109.668L945.866 108.78H943.868L945.644 107.67L943.646 107.892L945.422 106.56L943.202 107.004L944.756 105.45L942.98 106.116L944.312 104.562L942.314 105.228L943.646 103.674L941.87 104.34L942.758 102.786L941.204 103.674L941.87 102.12L940.538 103.23L941.204 101.232L939.65 102.786L939.872 100.788L938.54 102.342L938.762 100.344L937.43 102.12V99.9L936.098 101.898V99.678L934.988 101.676L934.766 99.456L933.434 101.676L933.212 99.234L932.102 101.676L931.658 98.79L930.326 101.676L929.66 99.012L928.55 101.676L927.884 99.456L927.218 101.898L926.774 100.566L926.552 102.12L926.108 101.232L926.33 102.342L925.22 101.232L925.664 102.786L924.332 101.676L925.22 103.23L923.444 102.564L924.554 103.896L922.778 103.452L924.11 104.784L922.334 104.562L923.888 105.672H921.89L923.666 106.782L921.446 107.004L923.444 108.114L921.002 108.558L923.222 109.668L920.78 110.112L923 111.444L920.78 111.666L922.778 112.776L920.78 113.22L922.778 114.33L920.78 114.774L922.556 115.662L920.78 116.106L922.556 116.994L921.002 117.66L922.778 118.326L920.78 119.214L923 120.102L921.668 120.99L924.11 121.212L923.222 122.322L924.332 121.878L924.11 122.322L924.998 121.878L924.554 124.32L927.218 122.766V123.876L928.328 122.544L928.55 124.764L929.882 122.544L930.326 124.764L931.436 122.544L931.88 124.32L932.768 122.322L933.212 124.32L934.1 122.1L934.544 124.098L935.21 121.656L935.876 123.654L936.542 121.434L937.208 123.432L937.43 120.99L938.318 122.988L938.54 120.546L939.428 122.322V120.102L940.538 121.878L940.316 119.88L941.426 121.212L940.982 119.436L942.092 120.546L941.648 118.77L942.98 119.88L942.092 118.326L943.868 119.436L942.758 117.66L944.756 118.548L943.424 116.772L945.2 117.438L944.534 116.772L943.646 116.106L944.09 116.328L943.868 115.884L945.644 116.55L946.754 116.772L944.312 114.33Z" fill="#FAFAFA"></path><path d="M1041.96 157.398L1043.96 153.402L1040.63 156.066L1042.63 152.07L1039.52 154.734L1041.3 150.96L1038.19 153.18L1039.97 149.85L1036.86 151.848L1038.63 148.74L1035.53 150.738L1037.3 147.63L1033.97 149.628L1035.75 146.52L1032.42 148.296L1034.42 145.41L1030.86 147.186L1033.08 144.078L1029.53 145.854L1031.97 142.524L1027.98 144.078L1031.09 140.748L1026.42 142.08L1029.75 139.194L1025.31 139.86L1028.42 137.418L1024.43 137.862L1027.76 135.864L1023.76 136.086L1027.09 134.31H1023.32L1026.42 132.756L1022.87 132.534L1025.98 130.98H1022.65L1025.54 129.426L1022.21 129.204L1025.09 127.872L1021.98 127.428L1024.87 126.318L1021.76 125.874L1024.43 124.542L1021.54 124.32L1024.2 122.988L1021.32 122.544L1023.76 121.434L1021.1 120.99L1023.54 119.88L1020.87 119.214L1023.32 118.326L1020.65 117.66L1023.09 116.55L1020.43 116.106L1022.65 114.996L1020.21 114.552L1022.43 113.442L1019.76 112.776L1022.21 111.888L1019.54 111.222L1021.76 110.334L1019.1 109.668L1021.32 108.78L1018.65 108.114L1021.1 107.226L1018.21 106.56L1020.65 105.672L1017.77 105.006L1020.21 104.118L1017.32 103.452L1019.76 102.564L1016.88 101.898L1019.32 101.01L1016.21 100.344L1018.88 99.456L1015.55 98.79L1018.43 97.902L1015.1 97.236L1017.99 96.348L1014.44 95.682L1017.54 94.794L1013.99 94.128L1017.1 93.24L1013.33 92.574L1016.88 91.686L1012.88 91.02L1016.43 89.91L1012.44 89.244L1016.21 88.356L1011.99 87.69L1015.77 86.802L1011.55 86.136L1015.55 85.026L1011.33 84.36L1015.55 83.472L1011.11 82.584L1015.55 81.696L1010.88 80.586L1015.32 79.92L1010.66 78.588L1015.1 78.144L1010.44 76.812L1014.66 76.368L1010.44 75.258L1014.66 74.814L1010.22 73.704L1014.66 73.26L1010.22 71.928L1014.66 71.706L1010 70.374L1014.66 70.152L1010 68.82L1014.66 68.376L1010 67.044L1014.66 66.822L1010 65.49L1014.88 65.268L1010.22 63.714L1015.1 63.492L1010.44 61.938H1015.32L1010.66 60.162L1015.55 60.384L1011.11 58.608H1015.99L1011.55 56.832L1016.66 57.054L1012.22 54.612L1017.32 55.278L1013.1 52.614L1017.32 53.28L1013.77 51.06L1017.99 51.726L1014.66 49.506L1018.65 50.172L1015.55 48.174L1019.54 48.84L1016.66 46.62L1020.21 47.286L1017.54 45.066L1020.87 45.732L1018.43 43.734L1021.76 44.4L1019.54 42.402L1022.65 42.846L1020.65 40.848L1023.54 41.514L1021.76 39.516L1024.43 40.182L1022.87 38.184L1025.31 38.628L1023.98 36.852L1026.2 37.296L1025.09 35.52L1027.31 35.964L1026.2 34.188L1028.2 34.632L1027.53 32.856L1029.31 33.522L1028.87 31.746L1030.42 32.19L1029.98 30.414L1031.53 30.858V29.082L1032.86 29.748L1033.31 27.972L1034.42 28.638L1034.86 27.084L1035.75 27.75L1036.19 26.196L1037.3 26.862L1037.75 25.308L1038.63 25.974L1039.08 24.642L1039.97 25.308L1040.63 23.754L1041.52 24.42L1041.96 23.088L1042.85 23.754L1043.52 22.2L1044.41 23.088L1044.85 21.312L1045.74 22.2L1046.18 20.646L1047.07 21.534L1047.74 19.758L1048.62 20.868L1049.07 19.092L1050.18 20.202L1050.62 18.426L1051.51 19.536L1051.95 17.538L1053.06 18.87L1053.51 16.872L1054.4 18.204L1054.84 16.206L1055.95 17.538L1056.39 15.54L1057.28 16.872L1057.95 14.652L1058.84 16.206L1059.28 13.986L1060.39 15.54L1060.83 13.32L1061.72 14.874L1062.17 12.654L1063.28 14.208L1063.72 11.766L1064.83 13.542L1065.05 11.1L1066.16 12.876L1066.61 10.434L1067.72 12.21L1068.16 9.76799L1069.27 11.766L1069.49 9.102L1070.6 11.1L1071.05 8.436L1072.16 10.434L1072.6 7.77001L1073.71 9.99L1073.93 7.104L1075.26 9.324L1075.49 6.65999L1076.82 8.88L1077.04 5.994L1078.37 8.214L1078.59 5.328L1079.93 7.77001L1080.15 4.884L1081.48 7.326L1081.7 4.218L1083.03 6.882L1083.48 3.774L1084.59 6.438L1085.03 3.33L1086.14 5.994L1086.81 2.886L1087.92 5.77201L1088.81 2.442L1089.69 5.77201L1091.03 2.22L1091.69 5.54999L1093.25 2.22L1093.69 5.106L1095.02 2.22L1095.24 5.106L1096.8 2.22L1097.02 5.328L1098.35 2.442L1098.8 5.328L1100.13 2.442L1100.57 5.54999L1101.9 2.442L1102.13 5.54999L1103.68 2.66401L1103.9 5.77201L1105.46 2.886L1105.68 5.994L1107.23 2.886L1107.45 6.216L1109.01 3.108V6.438L1111.01 3.55199L1110.78 6.882L1113 3.774L1112.78 7.104L1114.56 3.996L1114.34 7.326L1116.33 4.44L1116.11 7.77001L1118.11 4.66201L1117.89 8.214L1119.89 5.106L1119.44 8.436L1121.66 5.54999L1121.22 9.102L1123.44 5.994L1122.77 9.546L1125.21 6.438L1124.55 9.99L1126.99 6.882L1126.32 10.656L1128.99 7.548L1127.88 11.322L1130.76 8.214L1129.65 11.988L1132.54 8.88L1131.21 12.654L1134.32 9.546L1132.98 13.32L1136.09 10.434L1134.54 13.986L1137.65 11.1L1136.09 14.874L1139.2 11.988L1137.42 15.762L1140.75 12.876L1138.98 16.65L1142.31 13.986L1140.31 17.538L1143.86 14.874L1141.86 18.426L1145.19 15.984L1143.2 19.536L1146.75 17.094L1144.31 20.646L1148.08 18.426L1145.64 21.978L1149.41 19.758L1146.97 23.31L1150.74 21.09L1148.3 24.642L1152.08 22.644L1149.41 25.974L1153.41 24.198L1150.52 27.528L1154.52 25.974L1151.63 28.86L1155.63 27.528L1152.74 30.414L1156.74 29.304L1153.85 31.968L1157.63 31.08L1154.74 33.522L1158.51 32.634L1155.63 35.076L1159.18 34.188L1156.29 36.63L1160.07 35.964L1157.18 38.184L1160.73 37.74L1157.85 39.738L1161.4 39.516L1158.51 41.292H1162.07L1159.18 43.068H1162.73L1159.85 44.622L1163.18 44.844L1160.73 46.176H1163.4L1160.73 47.73H1164.06L1161.18 49.728L1164.73 49.95L1161.84 51.504L1165.17 51.948L1162.29 53.058L1165.4 53.946L1162.73 54.834L1165.62 55.722L1162.95 56.61L1165.84 57.276L1163.18 58.164L1166.06 59.052L1163.4 59.94L1166.28 60.828L1163.62 61.494L1166.51 62.382L1163.84 63.048L1166.51 64.158L1163.84 64.824L1166.73 65.712L1164.06 66.378L1166.73 67.488L1164.06 68.154L1166.73 69.042L1164.06 69.708L1166.95 70.818L1164.06 71.262L1166.73 72.372L1164.06 73.038L1166.73 74.148L1164.06 74.592L1166.73 75.702L1164.06 76.146L1166.51 77.256L1164.06 77.922L1166.28 79.032L1163.84 79.476L1166.28 80.586L1163.84 81.03L1166.06 82.14L1163.62 82.806L1165.84 83.916L1163.62 84.36L1165.62 85.47L1163.4 85.914L1165.4 87.024L1163.4 87.468L1165.17 88.8L1163.18 89.244L1164.95 90.354L1162.95 90.798L1164.95 92.13L1162.95 92.574L1164.73 93.684L1162.95 94.128L1164.51 95.46L1162.73 95.904L1164.51 97.014L1162.73 97.458L1164.51 98.79L1162.73 99.234L1164.51 100.344L1162.73 100.788L1164.51 102.12L1162.73 102.564L1164.73 103.896L1162.73 104.118L1164.73 105.45L1162.73 105.894L1164.95 107.226L1162.73 107.448L1164.95 109.002L1162.73 109.224L1165.17 110.778L1162.73 111L1165.17 112.776H1162.51L1164.95 114.552H1162.07L1164.95 116.55L1161.84 116.328L1164.51 118.548L1161.62 118.104L1164.29 120.324L1161.4 119.658L1163.84 121.878L1160.73 121.212L1163.4 123.432L1160.29 122.766L1162.73 124.986L1159.85 124.32L1162.29 126.54L1159.18 125.874L1161.4 128.094L1158.51 127.428L1160.73 129.648L1157.63 128.76L1159.85 131.202L1156.96 130.314L1158.96 132.534L1156.07 131.646L1158.07 134.088L1155.18 132.978L1156.96 135.42L1154.3 134.532L1156.07 136.974L1153.41 135.864L1154.96 138.306L1152.3 137.196L1153.85 139.638L1151.41 138.528L1152.74 141.192L1150.3 139.86L1151.63 142.524L1149.19 141.192L1150.3 144.078L1147.64 142.302L1148.52 145.632L1146.3 143.856L1147.19 146.742L1144.97 144.966L1145.64 148.074L1143.64 146.076L1144.31 149.184L1142.31 147.186L1142.75 150.072L1140.98 148.074L1141.42 151.182L1139.64 148.962L1139.87 152.07L1138.09 149.85L1138.53 152.958L1136.76 150.738L1136.98 153.846L1135.2 151.626L1135.65 154.734L1133.87 152.292L1134.09 155.622L1132.32 153.18L1132.54 156.288L1130.76 153.846L1130.99 156.954L1129.43 154.512V157.62L1127.88 155.178V158.286L1126.32 155.844V158.73L1124.77 156.51V159.396L1123.22 156.954V159.84L1121.88 157.62L1121.66 160.284L1120.33 158.286L1120.11 160.95L1118.78 158.73L1118.55 161.394L1117 158.952L1116.78 162.06L1115.22 159.396L1114.34 162.504L1113.45 160.284L1112.56 162.726L1111.67 160.506L1110.78 162.948L1109.9 160.728L1109.23 163.17L1108.34 160.95L1107.45 163.392L1106.57 161.394L1105.68 163.614L1105.01 161.394L1103.9 163.836L1103.24 161.616L1102.35 164.058L1101.68 161.838L1100.57 164.28L1099.91 162.06L1099.02 164.502L1098.35 162.282L1097.24 164.724L1096.58 162.504L1095.47 164.946L1095.02 162.504L1093.91 165.168L1093.25 162.726L1092.14 165.39L1091.47 162.726L1090.14 165.612L1089.69 162.948L1088.36 165.612L1088.14 162.948L1086.81 165.612L1086.36 162.948L1085.03 165.612L1084.81 162.948L1083.48 165.612L1083.26 162.948L1081.7 165.612L1081.48 162.726L1080.15 165.612L1079.93 162.726L1078.59 165.39L1078.37 162.504L1076.82 165.39V162.504L1075.26 165.39L1075.04 162.282L1073.49 165.168V162.06L1071.93 165.168V162.06L1070.38 164.946V161.838L1068.6 164.724V161.616L1067.05 164.724V161.394L1065.27 164.502L1065.5 161.172L1063.5 164.28L1063.72 160.95L1061.94 164.058L1062.17 160.728L1060.17 163.836L1060.61 160.284L1058.39 163.614L1058.84 160.062L1056.62 163.392L1057.28 159.618L1054.84 162.948L1055.51 159.174L1053.06 162.726L1053.95 158.508L1051.07 162.06L1052.18 157.842L1049.07 161.394L1050.62 156.954L1047.07 160.506L1049.07 155.844L1044.63 159.396L1046.85 155.622L1045.07 156.732L1043.52 158.73L1043.96 157.62L1043.07 158.286L1045.29 154.734L1045.52 154.29L1041.96 157.398ZM1103.01 110.778L1105.01 111.444L1103.01 109.002L1104.79 109.446L1102.57 107.67L1104.79 108.114L1102.13 106.338L1104.79 106.56L1101.68 105.006L1105.01 105.228L1101.9 103.896H1105.46L1102.35 102.564H1105.68L1102.57 101.232L1106.12 101.01L1102.79 99.9L1106.34 99.678L1103.01 98.346L1106.57 98.124L1103.46 96.792L1106.79 96.57L1103.68 95.238L1107.01 94.794L1103.9 93.684L1107.23 93.24L1104.12 91.908L1107.23 91.464L1104.35 90.354L1107.45 89.91L1104.57 88.8L1107.45 88.356L1104.79 87.246L1107.68 86.802L1105.01 85.692L1107.9 85.248L1105.01 84.138L1107.9 83.694L1105.23 82.584L1108.12 82.14L1105.46 81.03L1108.12 80.586L1105.68 79.476L1108.12 79.032L1105.68 77.922L1108.12 77.478L1105.68 76.368L1108.34 75.924L1105.9 74.814L1108.34 74.37L1105.9 73.26L1108.34 72.594L1105.9 71.706L1108.12 71.04L1105.9 70.152L1108.12 69.708L1105.9 68.598L1108.12 68.154L1105.9 67.266L1108.12 66.6L1105.9 65.934L1107.9 65.268L1105.68 64.38L1107.68 63.714L1105.68 63.048L1107.45 62.382L1105.46 61.716L1107.23 60.828L1105.23 60.384L1107.01 59.496L1105.01 59.274L1106.57 58.164L1104.57 57.942L1106.12 56.832H1104.35L1105.68 55.5H1103.68L1105.01 54.39H1103.24L1104.12 53.058L1102.35 53.28L1103.46 51.948L1101.68 52.17L1102.57 50.838L1100.79 51.282L1101.46 49.95L1099.91 50.394L1100.35 49.062L1099.02 49.506L1099.24 48.174L1097.91 48.84L1098.13 47.508L1096.58 48.174L1096.8 46.842L1095.47 47.508L1095.24 46.398L1094.36 47.286L1093.91 45.954L1093.02 47.064L1092.58 45.954L1091.69 46.842L1091.25 45.954L1090.36 47.064L1089.69 45.954L1088.81 47.064L1088.14 46.176L1087.47 47.508L1086.59 46.62L1085.92 47.73L1085.25 47.064L1084.59 48.396L1083.7 47.508L1083.26 48.84L1082.37 48.174L1081.92 49.506L1081.04 48.84L1080.59 50.172L1079.7 49.728L1079.26 51.06L1078.37 50.616L1078.15 51.948L1077.26 51.504L1077.04 52.836L1076.15 52.614L1075.93 53.946L1075.26 53.724V54.834H1074.38L1074.6 56.166H1073.49L1073.93 57.498L1073.04 57.72L1073.49 59.052H1072.38L1073.04 60.384L1072.16 60.606L1072.6 61.938L1071.71 62.16L1072.38 63.492L1071.49 63.936L1072.16 65.046L1071.27 65.49L1071.93 66.6L1071.05 67.044L1071.71 68.376L1070.82 68.598L1071.71 69.93L1070.82 70.374L1071.49 71.484L1070.6 71.928L1071.49 73.26L1070.6 73.704L1071.49 74.814L1070.6 75.258L1071.27 76.368L1070.6 76.812L1071.27 78.144L1070.6 78.588L1071.27 79.698L1070.6 80.142L1071.49 81.252L1070.6 81.696L1071.49 82.806L1070.6 83.25L1071.49 84.36L1070.6 84.804L1071.49 86.136L1070.6 86.58L1071.71 87.69L1070.82 88.134L1071.93 89.244L1070.82 89.688L1071.93 90.798L1071.05 91.242L1072.16 92.352L1071.05 92.796L1072.38 93.906L1071.27 94.572L1072.6 95.46L1071.49 96.126L1073.04 97.014L1071.71 97.68L1073.27 98.79L1071.93 99.234L1073.71 100.344L1072.16 101.01L1073.93 101.898L1072.6 102.564L1074.38 103.452L1072.82 104.118L1074.82 105.006L1073.27 105.672L1075.49 106.338L1073.93 107.226L1076.15 107.67L1074.38 108.558L1076.82 108.78L1075.26 109.89H1077.48L1075.93 111H1078.37L1076.82 112.11L1079.26 111.666L1077.71 112.998L1080.15 112.554L1078.82 113.886L1081.26 112.998L1079.7 114.774L1082.15 113.664L1080.81 115.44L1083.03 114.108L1081.92 115.884L1083.92 114.552L1082.81 116.772L1084.81 114.996L1083.92 117.216L1085.7 115.44L1085.48 116.328L1086.14 115.44L1085.7 117.216L1086.59 115.662V117.882L1087.47 115.884L1087.7 118.326L1088.36 115.884L1088.81 118.548L1089.47 116.106L1090.14 118.77L1090.58 116.106L1091.47 118.77L1091.69 116.106L1092.8 118.77L1093.02 116.106L1094.13 118.77L1094.36 116.106L1095.47 118.548V115.884L1096.8 118.104V115.662L1098.13 117.66V115.44L1099.46 117.216L1099.24 114.996L1100.79 116.55L1100.35 114.552L1101.9 115.884L1101.46 113.886L1102.79 114.996L1102.13 113.22L1103.68 114.108L1103.24 113.442L1102.57 112.776L1103.01 112.998L1102.79 112.554L1104.35 113.22L1105.01 113.442L1103.01 110.778Z" fill="#FAFAFA"></path></svg> 