<?xml version="1.0" encoding="UTF-8"?> <svg xmlns="http://www.w3.org/2000/svg" width="139" height="36" viewBox="0 0 139 36" fill="none"><path d="M6.4342 8.80286C8.0941 8.80286 9.49106 9.36164 10.6251 10.4792C11.759 11.5968 12.326 12.9691 12.326 14.5961C12.326 16.2231 11.759 17.5954 10.6251 18.713C9.49106 19.8306 8.0941 20.3893 6.4342 20.3893H3.40199V26.0593H0V8.80286H6.4342ZM6.4342 17.2092C7.15732 17.2092 7.75719 16.9627 8.2338 16.4697C8.71041 15.9602 8.94871 15.3357 8.94871 14.5961C8.94871 13.8401 8.71041 13.2156 8.2338 12.7225C7.75719 12.2295 7.15732 11.983 6.4342 11.983H3.40199V17.2092H6.4342Z" fill="#1F1F1F"></path><path d="M24.9554 26.0593L21.4795 20.0689H18.891V26.0593H15.489V8.80286H22.3916C23.9858 8.80286 25.3417 9.36164 26.4592 10.4792C27.5768 11.5968 28.1356 12.9444 28.1356 14.5221C28.1356 15.5904 27.8315 16.5847 27.2234 17.5051C26.6153 18.409 25.81 19.091 24.8075 19.5512L28.6286 26.0593H24.9554ZM18.891 11.983V17.086H22.3916C23.0326 17.086 23.5831 16.8394 24.0433 16.3464C24.5035 15.8369 24.7336 15.2288 24.7336 14.5221C24.7336 13.8155 24.5035 13.2156 24.0433 12.7225C23.5831 12.2295 23.0326 11.983 22.3916 11.983H18.891Z" fill="#1F1F1F"></path><path d="M31.5799 8.80286H34.9819V26.0593H31.5799V8.80286Z" fill="#1F1F1F"></path><path d="M49.1085 8.80286H52.5105V26.0593H49.9221L42.5264 15.5082V26.0593H39.1245V8.80286H41.7129L49.1085 19.3293V8.80286Z" fill="#1F1F1F"></path><path d="M68.0737 8.80286V12.0569H63.4145V26.0593H60.0125V12.0569H55.3779V8.80286H68.0737Z" fill="#1F1F1F"></path><path d="M74.323 22.8053H80.9052V26.0593H70.9211V8.80286H74.323V22.8053Z" fill="#1F1F1F"></path><path d="M97.2468 23.816C95.5047 25.5416 93.3846 26.4045 90.8866 26.4045C88.3885 26.4045 86.2684 25.5416 84.5263 23.816C82.8007 22.0739 81.9379 19.9456 81.9379 17.4311C81.9379 14.9166 82.8007 12.7965 84.5263 11.0709C86.2684 9.32877 88.3885 8.45773 90.8866 8.45773C93.3846 8.45773 95.5047 9.32877 97.2468 11.0709C98.9889 12.7965 99.8599 14.9166 99.8599 17.4311C99.8599 19.9456 98.9889 22.0739 97.2468 23.816ZM86.9176 21.4987C87.9858 22.5505 89.3088 23.0764 90.8866 23.0764C92.4643 23.0764 93.7873 22.5505 94.8556 21.4987C95.9238 20.4304 96.4579 19.0746 96.4579 17.4311C96.4579 15.7876 95.9238 14.4318 94.8556 13.3635C93.7873 12.2952 92.4643 11.7611 90.8866 11.7611C89.3088 11.7611 87.9858 12.2952 86.9176 13.3635C85.8493 14.4318 85.3152 15.7876 85.3152 17.4311C85.3152 19.0746 85.8493 20.4304 86.9176 21.4987Z" fill="#1F1F1F"></path><path d="M133.108 8.80289C134.768 8.80289 136.165 9.36167 137.299 10.4792C138.433 11.5968 139 12.9691 139 14.5961C139 16.2232 138.433 17.5955 137.299 18.713C136.165 19.8306 134.768 20.3894 133.108 20.3894H130.076V26.0594H126.674V8.80289H133.108ZM133.108 17.2093C133.831 17.2093 134.431 16.9627 134.908 16.4697C135.384 15.9602 135.623 15.3357 135.623 14.5961C135.623 13.8401 135.384 13.2156 134.908 12.7226C134.431 12.2295 133.831 11.983 133.108 11.983H130.076V17.2093H133.108Z" fill="#1F1F1F"></path><path fill-rule="evenodd" clip-rule="evenodd" d="M112.222 7.30039C109.142 7.56979 106.363 9.20198 104.701 11.7188C103.694 13.2431 103.181 14.835 103.087 16.7198C103.001 18.4675 103.344 20.1346 104.11 21.6838C104.428 22.3277 104.721 22.7973 105.179 23.3945C105.448 23.7457 106.305 24.6215 106.651 24.8999C108.207 26.1506 109.899 26.8581 111.786 27.0468C112.136 27.0818 113.096 27.0817 113.445 27.0467C114.465 26.9443 115.336 26.6852 116.272 26.2058C116.509 26.0842 116.71 25.9847 116.719 25.9847C116.788 25.9847 116.869 26.1832 117.256 27.311C117.494 28.0039 117.706 28.5984 117.728 28.6322C117.779 28.7111 117.879 28.7358 117.977 28.6942C118.039 28.6686 118.143 28.5222 118.458 28.0204C119.671 26.0903 119.923 25.6257 121.156 23.0492C121.754 21.8 122.063 21.0417 122.397 20.0013L122.497 19.6897L122.443 19.6161C122.409 19.5691 122.36 19.5395 122.309 19.5343C122.24 19.5273 121.423 19.7049 119.825 20.0743C119.006 20.2638 113.323 21.5612 112.799 21.6784C112.613 21.7202 112.55 21.7463 112.502 21.8029C112.435 21.8816 112.441 21.9742 112.518 22.0607C112.541 22.0868 112.959 22.4378 113.447 22.8407C113.935 23.2436 114.352 23.6071 114.373 23.6484C114.455 23.8084 114.303 23.9516 113.913 24.0821C112.982 24.3941 111.603 24.3216 110.398 23.8974C109.089 23.4362 107.923 22.5502 107.078 21.3755C106.576 20.6758 106.132 19.6797 105.957 18.8577C105.831 18.265 105.802 17.9648 105.801 17.2445C105.799 16.4755 105.836 16.128 105.985 15.5129C106.403 13.7867 107.499 12.2034 108.94 11.2443C110.071 10.492 111.298 10.1018 112.681 10.0546C114.04 10.0082 115.257 10.3043 116.453 10.9721C118.071 11.8754 119.321 13.4679 119.837 15.2821C120.021 15.9309 120.119 16.7626 120.091 17.4438C120.074 17.8682 120.017 18.4185 119.958 18.7323C119.925 18.9099 119.926 18.9268 119.97 18.9719C119.997 18.9986 120.04 19.0153 120.066 19.0089C120.092 19.0025 120.685 18.8664 121.384 18.7064C122.284 18.5001 122.667 18.4017 122.7 18.368C122.816 18.2491 122.83 16.6906 122.723 15.8666C122.516 14.2864 121.937 12.7887 121.03 11.4912C119.39 9.14513 116.774 7.61371 113.908 7.32249C113.552 7.28631 112.536 7.273 112.222 7.30039Z" fill="#FF5E3A"></path></svg> 