<?xml version="1.0" encoding="UTF-8"?> <svg xmlns="http://www.w3.org/2000/svg" width="70" height="43" viewBox="0 0 70 43" fill="none"><path d="M18.144 39.592C17.9947 40.4507 17.6213 41.048 17.024 41.384C16.4267 41.72 15.7733 41.832 15.064 41.72C14.3547 41.608 13.7573 41.2907 13.272 40.768C12.824 40.2827 12.6747 39.6107 12.824 38.752C12.3013 39.5733 11.592 40.0027 10.696 40.04C9.83733 40.04 8.99733 39.7973 8.176 39.312C7.35467 38.7893 6.73867 38.136 6.328 37.352C5.95467 36.5307 6.02933 35.728 6.552 34.944C5.46933 35.6533 4.592 35.9147 3.92 35.728C3.28533 35.504 3.00533 35.056 3.08 34.384C3.15467 33.712 3.71467 33.0213 4.76 32.312C4.05067 32.4613 3.416 32.312 2.856 31.864C2.33333 31.3787 1.92267 30.7627 1.624 30.016C1.32533 29.232 1.176 28.4293 1.176 27.608C1.176 26.7867 1.32533 26.0773 1.624 25.48C1.96 24.8453 2.50133 24.4533 3.248 24.304C2.16533 24.304 1.344 24.08 0.784 23.632C0.261333 23.1467 0 22.5867 0 21.952C0 21.3173 0.261333 20.7573 0.784 20.272C1.30667 19.7867 2.10933 19.544 3.192 19.544C2.184 19.4693 1.456 19.096 1.008 18.424C0.56 17.7147 0.354667 16.9307 0.392 16.072C0.466667 15.2133 0.784 14.4853 1.344 13.888C1.904 13.2533 2.688 12.9733 3.696 13.048C2.912 12.6747 2.42667 12.1707 2.24 11.536C2.05333 10.9013 2.09067 10.2853 2.352 9.688C2.65067 9.05333 3.09867 8.58667 3.696 8.288C4.33067 7.98934 5.04 8.008 5.824 8.344C5.488 7.896 5.432 7.392 5.656 6.832C5.91733 6.272 6.328 5.73067 6.888 5.208C7.48533 4.648 8.12 4.2 8.792 3.864C9.50133 3.49067 10.1547 3.28533 10.752 3.248C11.3867 3.21067 11.8533 3.416 12.152 3.864C11.928 2.93067 11.928 2.20267 12.152 1.68C12.4133 1.12 12.768 0.784 13.216 0.672001C13.7013 0.560001 14.168 0.690667 14.616 1.064C15.1013 1.43733 15.456 2.072 15.68 2.968C15.68 1.99733 16.0533 1.26933 16.8 0.784C17.5467 0.298666 18.4053 0.0559993 19.376 0.0559993C20.3467 0.0559993 21.2053 0.298666 21.952 0.784C22.6987 1.26933 23.072 2.016 23.072 3.024C23.408 2.128 23.9867 1.58667 24.808 1.4C25.6667 1.21334 26.544 1.288 27.44 1.624C28.336 1.96 29.0267 2.48267 29.512 3.192C30.0347 3.864 30.128 4.648 29.792 5.544C30.4267 4.94667 31.08 4.704 31.752 4.816C32.4613 4.89067 33.0587 5.18933 33.544 5.712C34.0293 6.19733 34.2907 6.79467 34.328 7.504C34.4027 8.176 34.104 8.82933 33.432 9.464C34.4027 9.16533 35.2053 9.24 35.84 9.688C36.512 10.136 36.96 10.7333 37.184 11.48C37.4453 12.2267 37.408 12.9733 37.072 13.72C36.7733 14.4293 36.1387 14.9333 35.168 15.232C35.9147 15.232 36.512 15.5307 36.96 16.128C37.4453 16.688 37.7627 17.3973 37.912 18.256C38.0987 19.1147 38.1173 19.9733 37.968 20.832C37.856 21.6907 37.576 22.4187 37.128 23.016C36.68 23.6133 36.064 23.912 35.28 23.912C35.9147 24.0613 36.3627 24.472 36.624 25.144C36.8853 25.7787 36.9787 26.544 36.904 27.44C36.8667 28.336 36.6987 29.2133 36.4 30.072C36.1013 30.8933 35.7093 31.5653 35.224 32.088C34.7387 32.6107 34.1787 32.816 33.544 32.704C34.2533 33.4133 34.5333 34.216 34.384 35.112C34.2347 35.9707 33.824 36.736 33.152 37.408C32.48 38.0427 31.696 38.4347 30.8 38.584C29.9413 38.696 29.1573 38.3787 28.448 37.632C28.9707 38.9387 29.0453 39.928 28.672 40.6C28.336 41.2347 27.8133 41.4213 27.104 41.16C26.3947 40.936 25.7973 40.1707 25.312 38.864C25.424 39.9467 25.2 40.7867 24.64 41.384C24.1173 41.9813 23.408 42.3173 22.512 42.392C21.6533 42.504 20.8133 42.336 19.992 41.888C19.1707 41.44 18.5547 40.6747 18.144 39.592ZM14.448 23.408C15.0453 23.408 15.456 23.5573 15.68 23.856C15.9413 24.1173 15.9973 24.416 15.848 24.752C15.736 25.088 15.4373 25.312 14.952 25.424C15.4 25.4613 15.8107 25.7413 16.184 26.264C16.5573 26.7493 16.8373 27.328 17.024 28C17.2107 28.672 17.248 29.288 17.136 29.848C17.472 29.5493 17.752 29.4187 17.976 29.456C18.2 29.4933 18.312 29.68 18.312 30.016C18.648 29.5307 19.1333 29.3627 19.768 29.512C20.4027 29.624 21.168 29.96 22.064 30.52C21.392 29.9973 21.1867 29.4373 21.448 28.84C21.7093 28.2427 22.2133 28 22.96 28.112C22.5867 27.888 22.3813 27.552 22.344 27.104C22.344 26.6187 22.4747 26.208 22.736 25.872C23.0347 25.4987 23.464 25.3307 24.024 25.368C23.5387 25.368 23.184 25.1813 22.96 24.808C22.736 24.4347 22.624 24.0053 22.624 23.52C22.624 23.0347 22.736 22.624 22.96 22.288C23.2213 21.9147 23.5947 21.728 24.08 21.728C23.632 21.728 23.2773 21.4853 23.016 21C22.792 20.4773 22.6613 19.8613 22.624 19.152C22.5867 18.4427 22.6427 17.808 22.792 17.248C22.9787 16.6507 23.2773 16.2773 23.688 16.128C23.2773 16.128 22.848 15.904 22.4 15.456C21.9893 14.9707 21.6347 14.4107 21.336 13.776C21.0747 13.104 20.9253 12.488 20.888 11.928C20.6267 12.3013 20.3467 12.488 20.048 12.488C19.7867 12.488 19.6 12.32 19.488 11.984C19.2267 12.4693 18.816 12.7867 18.256 12.936C17.7333 13.0853 17.2293 12.992 16.744 12.656C16.8187 13.104 16.688 13.552 16.352 14C16.0533 14.4107 15.6613 14.5973 15.176 14.56C15.5867 14.7467 15.8667 15.1013 16.016 15.624C16.2027 16.1093 16.2587 16.6507 16.184 17.248C16.1467 17.808 15.9787 18.2933 15.68 18.704C15.3813 19.1147 14.9707 19.32 14.448 19.32C14.9333 19.32 15.3067 19.5253 15.568 19.936C15.8293 20.3467 15.96 20.832 15.96 21.392C15.96 21.9147 15.8293 22.3813 15.568 22.792C15.344 23.2027 14.9707 23.408 14.448 23.408Z" fill="#36D6D0"></path><path d="M55.1473 39.032C54.1393 39.032 53.374 38.6773 52.8513 37.968C52.3286 37.2587 52.0673 36.4373 52.0673 35.504C52.0673 34.5333 52.3286 33.6933 52.8513 32.984C53.374 32.2747 54.1393 31.92 55.1473 31.92C53.7286 31.92 52.7766 31.6773 52.2913 31.192C51.806 30.7067 51.806 30.2213 52.2913 29.736C52.7766 29.2507 53.7286 29.008 55.1473 29.008C54.0273 29.008 53.1873 28.8027 52.6273 28.392C52.1046 27.944 51.8433 27.44 51.8433 26.88C51.8433 26.32 52.1046 25.8347 52.6273 25.424C53.1873 25.0133 54.0273 24.808 55.1473 24.808C54.438 24.808 53.878 24.5093 53.4673 23.912C53.0566 23.2773 52.7766 22.512 52.6273 21.616C52.5153 20.72 52.5526 19.8613 52.7393 19.04C52.3286 18.8907 52.0113 18.592 51.7873 18.144C51.526 18.704 51.0406 19.0587 50.3313 19.208C49.622 19.3573 49.006 19.0773 48.4833 18.368C48.2966 19.1147 47.9606 19.6373 47.4753 19.936C46.99 20.1973 46.4673 20.272 45.9073 20.16C45.3846 20.0107 44.9553 19.712 44.6193 19.264C44.3206 18.7787 44.246 18.1627 44.3953 17.416C43.7233 17.4907 43.182 17.2667 42.7713 16.744C42.3606 16.2213 42.118 15.624 42.0433 14.952C42.006 14.2427 42.1366 13.608 42.4353 13.048C42.734 12.4507 43.2193 12.1147 43.8913 12.04C43.3313 11.2933 43.1073 10.584 43.2193 9.912C43.3313 9.20267 43.6486 8.64267 44.1713 8.232C44.7313 7.82133 45.3473 7.65333 46.0193 7.728C46.7286 7.76533 47.382 8.15733 47.9793 8.904C47.3073 8.04534 46.9713 7.26134 46.9713 6.552C46.9713 5.84267 47.1953 5.32 47.6433 4.984C48.0913 4.648 48.6513 4.57334 49.3233 4.76C49.9953 4.90933 50.6673 5.41333 51.3393 6.272C50.8913 5.488 50.8353 4.74133 51.1713 4.032C51.5446 3.32267 52.1046 2.78133 52.8513 2.408C53.598 1.99733 54.3446 1.848 55.0913 1.96C55.8753 2.03467 56.4913 2.464 56.9393 3.248C56.9393 2.16533 57.2006 1.36267 57.7233 0.839999C58.2833 0.28 58.918 0 59.6273 0C60.374 0 61.0273 0.28 61.5873 0.839999C62.1473 1.36267 62.4273 2.16533 62.4273 3.248C62.3526 1.97867 62.5766 1.12 63.0993 0.672001C63.6593 0.186668 64.2193 0.149334 64.7793 0.559999C65.3766 0.970668 65.7126 1.81067 65.7873 3.08C66.6833 3.08 67.3553 3.472 67.8033 4.256C68.2886 5.00267 68.5313 5.88 68.5313 6.888C68.5313 7.896 68.2886 8.792 67.8033 9.576C67.3553 10.3227 66.6833 10.696 65.7873 10.696C67.2806 10.696 68.27 10.9387 68.7553 11.424C69.2406 11.872 69.2406 12.3387 68.7553 12.824C68.27 13.3093 67.2806 13.552 65.7873 13.552C66.758 13.552 67.486 13.8507 67.9713 14.448C68.4566 15.0453 68.6993 15.736 68.6993 16.52C68.6993 17.2667 68.4566 17.9387 67.9713 18.536C67.486 19.096 66.758 19.376 65.7873 19.376C66.5713 19.376 67.206 19.656 67.6913 20.216C68.1766 20.7387 68.494 21.4107 68.6433 22.232C68.7926 23.016 68.7926 23.8187 68.6433 24.64C68.494 25.424 68.1766 26.096 67.6913 26.656C67.206 27.1787 66.5713 27.44 65.7873 27.44C66.982 27.44 67.766 27.7013 68.1393 28.224C68.55 28.7467 68.55 29.2693 68.1393 29.792C67.766 30.2773 66.982 30.52 65.7873 30.52C66.4593 30.52 67.0007 30.8 67.4113 31.36C67.822 31.8827 68.102 32.5547 68.2513 33.376C68.4006 34.16 68.4006 34.9627 68.2513 35.784C68.102 36.568 67.822 37.24 67.4113 37.8C67.0007 38.3227 66.4593 38.584 65.7873 38.584C65.862 39.4427 65.638 40.1147 65.1153 40.6C64.63 41.048 64.0326 41.3093 63.3233 41.384C62.614 41.4587 61.9606 41.3093 61.3633 40.936C60.766 40.5627 60.43 39.9467 60.3553 39.088C60.3553 40.0213 60.0753 40.712 59.5153 41.16C58.9926 41.6453 58.3766 41.888 57.6673 41.888C56.9953 41.888 56.398 41.6453 55.8753 41.16C55.3526 40.712 55.11 40.0027 55.1473 39.032Z" fill="#36D6D0"></path></svg> 