<?xml version="1.0" encoding="UTF-8"?> <svg xmlns="http://www.w3.org/2000/svg" width="90" height="40" viewBox="0 0 90 40" fill="none"><rect width="90" height="40" rx="12" fill="#FF5E3A"></rect><path d="M20.9917 25.4083V16.9417C20.9917 16.6083 21.0917 16.2833 21.275 16.0083L23.55 12.625C23.9084 12.0833 24.8 11.7 25.5584 11.9833C26.375 12.2583 26.9167 13.175 26.7417 13.9917L26.3084 16.7167C26.275 16.9667 26.3417 17.1917 26.4834 17.3667C26.625 17.525 26.8334 17.625 27.0584 17.625H30.4834C31.1417 17.625 31.7084 17.8917 32.0417 18.3583C32.3584 18.8083 32.4167 19.3917 32.2084 19.9833L30.1584 26.225C29.9 27.2583 28.775 28.1 27.6584 28.1H24.4084C23.85 28.1 23.0667 27.9083 22.7084 27.55L21.6417 26.725C21.2334 26.4167 20.9917 25.925 20.9917 25.4083Z" fill="white"></path><path d="M18.3417 15.3167H17.4834C16.1917 15.3167 15.6667 15.8167 15.6667 17.05V25.4333C15.6667 26.6667 16.1917 27.1667 17.4834 27.1667H18.3417C19.6334 27.1667 20.1584 26.6667 20.1584 25.4333V17.05C20.1584 15.8167 19.6334 15.3167 18.3417 15.3167Z" fill="white"></path><path d="M51.7433 27V24.62H45.3633V22.37L49.9733 12.6H52.7233L48.1133 22.37H51.7433V18.62H54.1833V22.37H55.5333V24.62H54.1833V27H51.7433ZM58.4406 27V24.53H60.9106V27H58.4406ZM69.2648 12.32C70.2048 12.32 71.0515 12.5433 71.8048 12.99C72.5582 13.43 73.1515 14.0433 73.5848 14.83C74.0248 15.61 74.2448 16.51 74.2448 17.53V21.92C74.2448 23.0067 74.0248 23.9567 73.5848 24.77C73.1515 25.5767 72.5415 26.2 71.7548 26.64C70.9682 27.08 70.0482 27.3 68.9948 27.3C68.2682 27.3 67.5815 27.1767 66.9348 26.93C66.2882 26.6767 65.7082 26.29 65.1948 25.77L66.9248 24.08C67.1848 24.38 67.4948 24.6167 67.8548 24.79C68.2215 24.9567 68.6015 25.04 68.9948 25.04C69.5548 25.04 70.0448 24.91 70.4648 24.65C70.8848 24.3833 71.2115 24.04 71.4448 23.62C71.6782 23.1933 71.7948 22.7367 71.7948 22.25V19.86L72.2248 20.34C71.8182 20.82 71.3248 21.1967 70.7448 21.47C70.1648 21.7367 69.5548 21.87 68.9148 21.87C68.0148 21.87 67.2148 21.6633 66.5148 21.25C65.8215 20.8367 65.2748 20.2767 64.8748 19.57C64.4815 18.8567 64.2848 18.05 64.2848 17.15C64.2848 16.25 64.5115 15.4367 64.9648 14.71C65.4182 13.9767 66.0215 13.3967 66.7748 12.97C67.5348 12.5367 68.3648 12.32 69.2648 12.32ZM69.2648 14.62C68.7982 14.62 68.3715 14.7333 67.9848 14.96C67.5982 15.1867 67.2915 15.4933 67.0648 15.88C66.8382 16.26 66.7248 16.6833 66.7248 17.15C66.7248 17.6167 66.8348 18.0433 67.0548 18.43C67.2815 18.8167 67.5848 19.1233 67.9648 19.35C68.3515 19.5767 68.7782 19.69 69.2448 19.69C69.7115 19.69 70.1382 19.5767 70.5248 19.35C70.9115 19.1233 71.2182 18.8167 71.4448 18.43C71.6782 18.0433 71.7948 17.6167 71.7948 17.15C71.7948 16.6967 71.6815 16.28 71.4548 15.9C71.2282 15.5133 70.9215 15.2033 70.5348 14.97C70.1548 14.7367 69.7315 14.62 69.2648 14.62Z" fill="white"></path></svg> 