<?xml version="1.0" encoding="UTF-8"?> <svg xmlns="http://www.w3.org/2000/svg" width="77" height="43" viewBox="0 0 77 43" fill="none"><path d="M18.144 39.6785C17.9947 40.5372 17.6213 41.1345 17.024 41.4705C16.4267 41.8065 15.7733 41.9185 15.064 41.8065C14.3547 41.6945 13.7573 41.3772 13.272 40.8545C12.824 40.3692 12.6747 39.6972 12.824 38.8385C12.3013 39.6599 11.592 40.0892 10.696 40.1265C9.83733 40.1265 8.99733 39.8839 8.176 39.3985C7.35467 38.8759 6.73867 38.2225 6.328 37.4385C5.95467 36.6172 6.02933 35.8145 6.552 35.0305C5.46933 35.7399 4.592 36.0012 3.92 35.8145C3.28533 35.5905 3.00533 35.1425 3.08 34.4705C3.15467 33.7985 3.71467 33.1079 4.76 32.3985C4.05067 32.5479 3.416 32.3985 2.856 31.9505C2.33333 31.4652 1.92267 30.8492 1.624 30.1025C1.32533 29.3185 1.176 28.5159 1.176 27.6945C1.176 26.8732 1.32533 26.1639 1.624 25.5665C1.96 24.9319 2.50133 24.5399 3.248 24.3905C2.16533 24.3905 1.344 24.1665 0.784 23.7185C0.261333 23.2332 0 22.6732 0 22.0385C0 21.4039 0.261333 20.8439 0.784 20.3585C1.30667 19.8732 2.10933 19.6305 3.192 19.6305C2.184 19.5559 1.456 19.1825 1.008 18.5105C0.56 17.8012 0.354667 17.0172 0.392 16.1585C0.466667 15.2999 0.784 14.5719 1.344 13.9745C1.904 13.3399 2.688 13.0599 3.696 13.1345C2.912 12.7612 2.42667 12.2572 2.24 11.6225C2.05333 10.9879 2.09067 10.3719 2.352 9.77455C2.65067 9.13988 3.09867 8.67321 3.696 8.37454C4.33067 8.07588 5.04 8.09455 5.824 8.43054C5.488 7.98255 5.432 7.47855 5.656 6.91855C5.91733 6.35855 6.328 5.81721 6.888 5.29454C7.48533 4.73454 8.12 4.28654 8.792 3.95054C9.50133 3.57721 10.1547 3.37188 10.752 3.33455C11.3867 3.29721 11.8533 3.50255 12.152 3.95054C11.928 3.01721 11.928 2.28921 12.152 1.76655C12.4133 1.20654 12.768 0.870544 13.216 0.758546C13.7013 0.646545 14.168 0.777211 14.616 1.15054C15.1013 1.52388 15.456 2.15854 15.68 3.05455C15.68 2.08388 16.0533 1.35588 16.8 0.870544C17.5467 0.38521 18.4053 0.142544 19.376 0.142544C20.3467 0.142544 21.2053 0.38521 21.952 0.870544C22.6987 1.35588 23.072 2.10255 23.072 3.11055C23.408 2.21455 23.9867 1.67321 24.808 1.48655C25.6667 1.29988 26.544 1.37455 27.44 1.71054C28.336 2.04654 29.0267 2.56921 29.512 3.27855C30.0347 3.95054 30.128 4.73454 29.792 5.63055C30.4267 5.03321 31.08 4.79055 31.752 4.90255C32.4613 4.97721 33.0587 5.27588 33.544 5.79854C34.0293 6.28388 34.2907 6.88121 34.328 7.59054C34.4027 8.26254 34.104 8.91588 33.432 9.55055C34.4027 9.25188 35.2053 9.32655 35.84 9.77455C36.512 10.2225 36.96 10.8199 37.184 11.5665C37.4453 12.3132 37.408 13.0599 37.072 13.8065C36.7733 14.5159 36.1387 15.0199 35.168 15.3185C35.9147 15.3185 36.512 15.6172 36.96 16.2145C37.4453 16.7745 37.7627 17.4839 37.912 18.3425C38.0987 19.2012 38.1173 20.0599 37.968 20.9185C37.856 21.7772 37.576 22.5052 37.128 23.1025C36.68 23.6999 36.064 23.9985 35.28 23.9985C35.9147 24.1479 36.3627 24.5585 36.624 25.2305C36.8853 25.8652 36.9787 26.6305 36.904 27.5265C36.8667 28.4225 36.6987 29.2999 36.4 30.1585C36.1013 30.9799 35.7093 31.6519 35.224 32.1745C34.7387 32.6972 34.1787 32.9025 33.544 32.7905C34.2533 33.4999 34.5333 34.3025 34.384 35.1985C34.2347 36.0572 33.824 36.8225 33.152 37.4945C32.48 38.1292 31.696 38.5212 30.8 38.6705C29.9413 38.7825 29.1573 38.4652 28.448 37.7185C28.9707 39.0252 29.0453 40.0145 28.672 40.6865C28.336 41.3212 27.8133 41.5079 27.104 41.2465C26.3947 41.0225 25.7973 40.2572 25.312 38.9505C25.424 40.0332 25.2 40.8732 24.64 41.4705C24.1173 42.0679 23.408 42.4039 22.512 42.4785C21.6533 42.5905 20.8133 42.4225 19.992 41.9745C19.1707 41.5265 18.5547 40.7612 18.144 39.6785ZM14.448 23.4945C15.0453 23.4945 15.456 23.6439 15.68 23.9425C15.9413 24.2039 15.9973 24.5025 15.848 24.8385C15.736 25.1745 15.4373 25.3985 14.952 25.5105C15.4 25.5479 15.8107 25.8279 16.184 26.3505C16.5573 26.8359 16.8373 27.4145 17.024 28.0865C17.2107 28.7585 17.248 29.3745 17.136 29.9345C17.472 29.6359 17.752 29.5052 17.976 29.5425C18.2 29.5799 18.312 29.7665 18.312 30.1025C18.648 29.6172 19.1333 29.4492 19.768 29.5985C20.4027 29.7105 21.168 30.0465 22.064 30.6065C21.392 30.0839 21.1867 29.5239 21.448 28.9265C21.7093 28.3292 22.2133 28.0865 22.96 28.1985C22.5867 27.9745 22.3813 27.6385 22.344 27.1905C22.344 26.7052 22.4747 26.2945 22.736 25.9585C23.0347 25.5852 23.464 25.4172 24.024 25.4545C23.5387 25.4545 23.184 25.2679 22.96 24.8945C22.736 24.5212 22.624 24.0919 22.624 23.6065C22.624 23.1212 22.736 22.7105 22.96 22.3745C23.2213 22.0012 23.5947 21.8145 24.08 21.8145C23.632 21.8145 23.2773 21.5719 23.016 21.0865C22.792 20.5639 22.6613 19.9479 22.624 19.2385C22.5867 18.5292 22.6427 17.8945 22.792 17.3345C22.9787 16.7372 23.2773 16.3639 23.688 16.2145C23.2773 16.2145 22.848 15.9905 22.4 15.5425C21.9893 15.0572 21.6347 14.4972 21.336 13.8625C21.0747 13.1905 20.9253 12.5745 20.888 12.0145C20.6267 12.3879 20.3467 12.5745 20.048 12.5745C19.7867 12.5745 19.6 12.4065 19.488 12.0705C19.2267 12.5559 18.816 12.8732 18.256 13.0225C17.7333 13.1719 17.2293 13.0785 16.744 12.7425C16.8187 13.1905 16.688 13.6385 16.352 14.0865C16.0533 14.4972 15.6613 14.6839 15.176 14.6465C15.5867 14.8332 15.8667 15.1879 16.016 15.7105C16.2027 16.1959 16.2587 16.7372 16.184 17.3345C16.1467 17.8945 15.9787 18.3799 15.68 18.7905C15.3813 19.2012 14.9707 19.4065 14.448 19.4065C14.9333 19.4065 15.3067 19.6119 15.568 20.0225C15.8293 20.4332 15.96 20.9185 15.96 21.4785C15.96 22.0012 15.8293 22.4679 15.568 22.8785C15.344 23.2892 14.9707 23.4945 14.448 23.4945Z" fill="#36D6D0"></path><path d="M43.0513 38.4465C41.9313 38.4465 41.1846 38.2225 40.8113 37.7745C40.438 37.3265 40.438 36.8785 40.8113 36.4305C41.1846 35.9825 41.9313 35.7585 43.0513 35.7585C42.118 35.5345 41.4646 35.1612 41.0913 34.6385C40.7553 34.0785 40.6433 33.5372 40.7553 33.0145C40.9046 32.4545 41.2593 32.0252 41.8193 31.7265C42.4166 31.4279 43.182 31.3905 44.1153 31.6145C43.63 30.9799 43.4806 30.3079 43.6673 29.5985C43.8913 28.8519 44.302 28.1612 44.8993 27.5265C45.4966 26.8919 46.1873 26.3879 46.9713 26.0145C47.7926 25.6412 48.5766 25.4732 49.3233 25.5105C50.07 25.5479 50.6673 25.8839 51.1153 26.5185C50.2566 25.3239 49.846 24.4092 49.8833 23.7745C49.958 23.1025 50.3126 22.8225 50.9473 22.9345C51.6193 23.0465 52.4033 23.6999 53.2993 24.8945C52.6273 24.0359 52.3473 23.2145 52.4593 22.4305C52.6086 21.6092 53.0006 20.9559 53.6353 20.4705C54.27 19.9479 54.9793 19.7052 55.7633 19.7425C56.5846 19.7799 57.3313 20.2279 58.0033 21.0865C57.4433 20.4519 57.2193 19.8732 57.3313 19.3505C57.4433 18.8279 57.7233 18.4919 58.1713 18.3425C58.6566 18.1932 59.1793 18.3425 59.7393 18.7905C59.2913 18.2679 59.1233 17.7265 59.2353 17.1665C59.3846 16.6065 59.6833 16.1772 60.1313 15.8785C59.646 15.6172 59.2726 15.2439 59.0113 14.7585C58.7873 14.2359 58.694 13.7132 58.7313 13.1905C58.358 13.1532 58.022 13.0039 57.7233 12.7425C57.4246 12.4812 57.2006 12.1265 57.0513 11.6785C56.9393 12.2385 56.5846 12.7985 55.9873 13.3585C55.39 13.8812 54.6993 14.3292 53.9153 14.7025C53.1313 15.0385 52.3846 15.2065 51.6753 15.2065C51.0033 15.1692 50.518 14.8892 50.2193 14.3665C50.2193 15.4119 49.9206 16.1959 49.3233 16.7185C48.7633 17.2039 48.0913 17.4465 47.3073 17.4465C46.5233 17.4465 45.8326 17.2039 45.2353 16.7185C44.6753 16.1959 44.3953 15.4119 44.3953 14.3665C43.3873 14.3292 42.6406 14.1239 42.1553 13.7505C41.67 13.3399 41.4273 12.8919 41.4273 12.4065C41.4646 11.9212 41.7446 11.5105 42.2673 11.1745C42.79 10.8385 43.5553 10.6892 44.5633 10.7265C43.7046 10.0919 43.2193 9.40121 43.1073 8.65454C43.0326 7.90788 43.2006 7.23588 43.6113 6.63855C44.0593 6.04121 44.6566 5.66788 45.4033 5.51854C46.15 5.36921 46.9526 5.59321 47.8113 6.19055C47.3633 5.36921 47.2886 4.60388 47.5873 3.89455C47.886 3.18521 48.39 2.64388 49.0993 2.27055C49.8086 1.89721 50.5366 1.78521 51.2833 1.93454C52.03 2.04654 52.6273 2.53188 53.0753 3.39055C53.0006 2.45721 53.318 1.72921 54.0273 1.20655C54.7366 0.646545 55.5766 0.310545 56.5473 0.198546C57.5553 0.0865454 58.4513 0.235878 59.2353 0.646544C60.0566 1.01988 60.5233 1.67321 60.6353 2.60655C60.7473 1.37455 61.046 0.590546 61.5313 0.254545C62.0166 -0.118787 62.4646 -0.0814546 62.8753 0.366544C63.286 0.814545 63.4353 1.63588 63.3233 2.83055C63.5846 1.97188 64.07 1.41188 64.7793 1.15054C65.4886 0.889212 66.198 0.870545 66.9073 1.09454C67.654 1.31854 68.2326 1.74788 68.6433 2.38254C69.0913 2.97988 69.166 3.72655 68.8673 4.62255C69.6513 3.57721 70.398 3.05455 71.1073 3.05455C71.854 3.01721 72.302 3.35321 72.4513 4.06255C72.638 4.73454 72.3393 5.59321 71.5553 6.63855C72.414 6.11588 73.1606 5.89188 73.7953 5.96655C74.43 6.00388 74.878 6.24655 75.1393 6.69455C75.4006 7.10521 75.4193 7.60921 75.1953 8.20655C74.9713 8.76655 74.43 9.32655 73.5713 9.88655C74.4673 9.84921 75.1393 10.1479 75.5873 10.7825C76.0726 11.3799 76.3153 12.1079 76.3153 12.9665C76.3526 13.7879 76.1473 14.5345 75.6993 15.2065C75.2886 15.8412 74.6353 16.1585 73.7393 16.1585C74.486 16.6439 74.8593 17.2972 74.8593 18.1185C74.8966 18.9399 74.6726 19.7239 74.1873 20.4705C73.702 21.1799 73.086 21.7025 72.3393 22.0385C71.5926 22.3372 70.846 22.2439 70.0993 21.7585C70.5846 22.3185 70.7527 22.9159 70.6033 23.5505C70.4913 24.1852 70.174 24.7825 69.6513 25.3425C69.166 25.8652 68.5873 26.2385 67.9153 26.4625C67.2806 26.6865 66.6833 26.6865 66.1233 26.4625C66.4966 26.9105 66.646 27.4892 66.5713 28.1985C67.3926 28.2359 68.1393 28.4972 68.8113 28.9825C69.5207 29.4305 69.838 30.1025 69.7633 30.9985C69.7633 29.8785 70.006 29.1319 70.4913 28.7585C70.9766 28.3479 71.462 28.3479 71.9473 28.7585C72.4326 29.1319 72.6753 29.8785 72.6753 30.9985C73.3846 30.6999 74.0193 30.7559 74.5793 31.1665C75.1766 31.5772 75.6246 32.1372 75.9233 32.8465C76.222 33.5559 76.3153 34.2652 76.2033 34.9745C76.0913 35.6465 75.6806 36.1319 74.9713 36.4305C75.4193 36.9905 75.5686 37.5505 75.4193 38.1105C75.3073 38.6332 75.0273 39.0812 74.5793 39.4545C74.1313 39.7905 73.6273 39.9772 73.0673 40.0145C72.5073 40.0145 72.0033 39.7345 71.5553 39.1745C71.5553 39.8839 71.294 40.4439 70.7713 40.8545C70.2486 41.3025 69.5953 41.6012 68.8113 41.7505C68.0273 41.8999 67.2433 41.8999 66.4593 41.7505C65.6753 41.6012 65.022 41.3025 64.4993 40.8545C63.9766 40.4439 63.7153 39.8839 63.7153 39.1745C63.7153 40.0705 63.4353 40.7425 62.8753 41.1905C62.3526 41.6759 61.7366 41.9185 61.0273 41.9185C60.318 41.9185 59.6833 41.6759 59.1233 41.1905C58.6006 40.7425 58.3393 40.0705 58.3393 39.1745C58.3393 40.2945 57.966 41.1159 57.2193 41.6385C56.4726 42.1985 55.614 42.4785 54.6433 42.4785C53.6726 42.4785 52.814 42.1985 52.0673 41.6385C51.3206 41.1159 50.9473 40.2945 50.9473 39.1745C50.9473 40.0705 50.6486 40.7239 50.0513 41.1345C49.4913 41.5825 48.8193 41.8065 48.0353 41.8065C47.2513 41.8065 46.5606 41.5825 45.9633 41.1345C45.4033 40.7239 45.1233 40.0705 45.1233 39.1745C45.1233 40.5185 44.9366 41.3959 44.5633 41.8065C44.19 42.2545 43.8353 42.1985 43.4993 41.6385C43.1633 41.0785 43.014 40.0145 43.0513 38.4465Z" fill="#36D6D0"></path></svg> 