<?xml version="1.0" encoding="UTF-8"?> <svg xmlns="http://www.w3.org/2000/svg" width="90" height="40" viewBox="0 0 90 40" fill="none"><rect width="90" height="40" rx="12" fill="#FF5E3A"></rect><path d="M20.9917 25.4083V16.9417C20.9917 16.6083 21.0917 16.2833 21.275 16.0083L23.55 12.625C23.9084 12.0833 24.8 11.7 25.5584 11.9833C26.375 12.2583 26.9167 13.175 26.7417 13.9917L26.3084 16.7167C26.275 16.9667 26.3417 17.1917 26.4834 17.3667C26.625 17.525 26.8334 17.625 27.0584 17.625H30.4834C31.1417 17.625 31.7084 17.8917 32.0417 18.3583C32.3584 18.8083 32.4167 19.3917 32.2084 19.9833L30.1584 26.225C29.9 27.2583 28.775 28.1 27.6584 28.1H24.4084C23.85 28.1 23.0667 27.9083 22.7084 27.55L21.6417 26.725C21.2334 26.4167 20.9917 25.925 20.9917 25.4083Z" fill="white"></path><path d="M18.3417 15.3167H17.4834C16.1917 15.3167 15.6667 15.8167 15.6667 17.05V25.4333C15.6667 26.6667 16.1917 27.1667 17.4834 27.1667H18.3417C19.6334 27.1667 20.1584 26.6667 20.1584 25.4333V17.05C20.1584 15.8167 19.6334 15.3167 18.3417 15.3167Z" fill="white"></path><path d="M51.8312 27V24.62H45.4512V22.37L50.0612 12.6H52.8112L48.2012 22.37H51.8312V18.62H54.2712V22.37H55.6212V24.62H54.2712V27H51.8312ZM58.5285 27V24.53H60.9985V27H58.5285ZM69.4127 27.3C68.4594 27.3 67.6127 27.1067 66.8727 26.72C66.1327 26.3333 65.5527 25.7967 65.1327 25.11C64.7127 24.4233 64.5027 23.6367 64.5027 22.75C64.5027 21.9567 64.6861 21.22 65.0527 20.54C65.4194 19.86 65.9561 19.3167 66.6627 18.91L66.6127 19.68C66.0594 19.26 65.6294 18.7767 65.3227 18.23C65.0227 17.6767 64.8727 17.0567 64.8727 16.37C64.8727 15.5433 65.0661 14.8267 65.4527 14.22C65.8461 13.6133 66.3827 13.1433 67.0627 12.81C67.7427 12.47 68.5261 12.3 69.4127 12.3C70.2994 12.3 71.0827 12.47 71.7627 12.81C72.4494 13.1433 72.9861 13.6133 73.3727 14.22C73.7661 14.8267 73.9627 15.5433 73.9627 16.37C73.9627 17.0567 73.8161 17.6733 73.5227 18.22C73.2361 18.7667 72.7994 19.26 72.2127 19.7L72.2027 18.92C72.8961 19.3133 73.4261 19.8533 73.7927 20.54C74.1661 21.22 74.3527 21.9567 74.3527 22.75C74.3527 23.6367 74.1394 24.4233 73.7127 25.11C73.2927 25.7967 72.7094 26.3333 71.9627 26.72C71.2227 27.1067 70.3727 27.3 69.4127 27.3ZM69.4127 25.03C70.1194 25.03 70.6927 24.8367 71.1327 24.45C71.5794 24.0633 71.8027 23.4967 71.8027 22.75C71.8027 22.0033 71.5827 21.4367 71.1427 21.05C70.7027 20.6567 70.1261 20.46 69.4127 20.46C68.7061 20.46 68.1361 20.6567 67.7027 21.05C67.2694 21.4367 67.0527 22.0033 67.0527 22.75C67.0527 23.4967 67.2694 24.0633 67.7027 24.45C68.1361 24.8367 68.7061 25.03 69.4127 25.03ZM69.4127 18.17C70.0061 18.17 70.4861 18.0233 70.8527 17.73C71.2261 17.43 71.4127 16.9767 71.4127 16.37C71.4127 15.7633 71.2261 15.3133 70.8527 15.02C70.4861 14.72 70.0061 14.57 69.4127 14.57C68.8261 14.57 68.3461 14.72 67.9727 15.02C67.6061 15.3133 67.4227 15.7633 67.4227 16.37C67.4227 16.9767 67.6061 17.43 67.9727 17.73C68.3461 18.0233 68.8261 18.17 69.4127 18.17Z" fill="white"></path></svg> 