<?xml version="1.0" encoding="UTF-8"?> <svg xmlns="http://www.w3.org/2000/svg" width="40" height="40" viewBox="0 0 40 40" fill="none"><rect width="40" height="40" rx="12" fill="#FF5E3A"></rect><path d="M29.81 11.94C28.5 15.21 25.51 19.48 22.66 22.27C22.25 19.69 20.19 17.67 17.59 17.31C20.39 14.45 24.69 11.42 27.97 10.1C28.55 9.88003 29.13 10.05 29.49 10.41C29.87 10.79 30.05 11.36 29.81 11.94Z" fill="white"></path><path d="M21.78 23.09C21.58 23.26 21.38 23.43 21.18 23.59L19.39 25.02C19.39 24.99 19.38 24.95 19.38 24.91C19.24 23.84 18.74 22.85 17.93 22.04C17.11 21.22 16.09 20.72 14.97 20.58C14.94 20.58 14.9 20.57 14.87 20.57L16.32 18.74C16.46 18.56 16.61 18.39 16.77 18.21L17.45 18.3C19.6 18.6 21.33 20.29 21.67 22.43L21.78 23.09Z" fill="white"></path><path d="M18.43 25.62C18.43 26.72 18.01 27.77 17.21 28.56C16.6 29.18 15.78 29.6 14.78 29.72L12.33 29.99C10.99 30.14 9.84001 28.99 9.99001 27.64L10.26 25.18C10.5 22.99 12.33 21.59 14.27 21.55C14.46 21.54 14.67 21.55 14.87 21.57C15.72 21.68 16.54 22.07 17.23 22.75C17.9 23.42 18.28 24.21 18.39 25.04C18.41 25.24 18.43 25.43 18.43 25.62Z" fill="white"></path></svg> 