<?xml version="1.0" encoding="UTF-8"?> <svg xmlns="http://www.w3.org/2000/svg" width="1024" height="1024" viewBox="0 0 1024 1024" fill="none"><rect width="1024" height="1024" rx="512" fill="#FF5E3A"></rect><path fill-rule="evenodd" clip-rule="evenodd" d="M496.797 278.319C429.516 284.203 368.834 319.85 332.528 374.818C310.539 408.109 299.321 442.875 297.285 484.042C295.397 522.21 302.895 558.621 319.611 592.455C326.558 606.518 332.972 616.775 342.972 629.818C348.852 637.488 367.555 656.616 375.121 662.697C409.105 690.01 446.063 705.462 487.267 709.584C494.914 710.348 515.874 710.347 523.505 709.582C545.785 707.346 564.807 701.687 585.233 691.217C590.414 688.561 594.809 686.388 595.001 686.388C596.516 686.388 598.271 690.722 606.73 715.354C611.928 730.487 616.57 743.472 617.047 744.21C618.161 745.932 620.329 746.472 622.49 745.565C623.825 745.005 626.107 741.807 632.992 730.849C659.477 688.695 664.983 678.548 691.911 622.276C704.966 594.994 711.71 578.431 719.019 555.709L721.207 548.903L720.028 547.296C719.275 546.27 718.213 545.624 717.091 545.51C715.585 545.357 697.742 549.237 662.848 557.304C644.954 561.442 520.839 589.777 509.394 592.338C505.322 593.25 503.961 593.82 502.91 595.056C501.448 596.775 501.569 598.797 503.249 600.686C503.757 601.257 512.893 608.923 523.551 617.723C534.208 626.522 543.306 634.46 543.766 635.363C545.55 638.858 542.235 641.984 533.725 644.834C513.378 651.649 483.261 650.066 456.957 640.801C428.359 630.727 402.888 611.379 384.451 585.723C373.47 570.441 363.785 548.686 359.969 530.732C357.218 517.789 356.581 511.231 356.545 495.501C356.508 478.705 357.315 471.116 360.567 457.682C369.695 419.982 393.638 385.403 425.119 364.455C449.813 348.024 476.607 339.502 506.817 338.471C536.495 337.458 563.076 343.924 589.198 358.509C624.529 378.238 651.833 413.017 663.094 452.64C667.121 466.81 669.261 484.975 668.656 499.852C668.279 509.121 667.037 521.14 665.749 527.993C665.019 531.874 665.038 532.242 666.011 533.227C666.587 533.811 667.527 534.174 668.102 534.034C668.677 533.895 681.626 530.922 696.879 527.428C716.545 522.923 724.907 520.773 725.628 520.037C728.169 517.442 728.481 483.403 726.129 465.407C721.618 430.895 708.962 398.184 689.156 369.847C653.345 318.608 596.207 285.162 533.616 278.801C525.843 278.011 503.64 277.72 496.797 278.319Z" fill="white"></path></svg> 