<?xml version="1.0" encoding="UTF-8"?> <svg xmlns="http://www.w3.org/2000/svg" width="32" height="32" viewBox="0 0 32 32" fill="none"><path d="M0 16C0 7.1632 7.1616 0 16 0C24.8352 0 32 7.1632 32 16C32 24.8368 24.8352 32 16 32C7.1616 32 0 24.8368 0 16Z" fill="#FC3F1D"></path><path d="M18.5404 10.1631H17.2925C15.0047 10.1631 13.8014 11.3188 13.8014 13.0226C13.8014 14.9487 14.6333 15.8512 16.3417 17.0082L17.7531 17.9564L13.6974 24H10.6667L14.3065 18.5935C12.2131 17.0971 11.0381 15.6437 11.0381 13.1856C11.0381 10.1039 13.1923 8 17.2777 8H21.3334V23.9852H18.5404V10.1631Z" fill="white"></path></svg> 