<?xml version="1.0" encoding="UTF-8"?> <svg xmlns="http://www.w3.org/2000/svg" width="40" height="40" viewBox="0 0 40 40" fill="none"><rect width="40" height="40" rx="12" fill="#FF5E3A"></rect><path d="M29.56 18.74L28.2 17.16C27.94 16.86 27.73 16.3 27.73 15.9V14.2C27.73 13.14 26.86 12.27 25.8 12.27H24.1C23.71 12.27 23.14 12.06 22.84 11.8L21.26 10.44C20.57 9.85 19.44 9.85 18.74 10.44L17.17 11.81C16.87 12.06 16.3 12.27 15.91 12.27H14.18C13.12 12.27 12.25 13.14 12.25 14.2V15.91C12.25 16.3 12.04 16.86 11.79 17.16L10.44 18.75C9.86 19.44 9.86 20.56 10.44 21.25L11.79 22.84C12.04 23.14 12.25 23.7 12.25 24.09V25.8C12.25 26.86 13.12 27.73 14.18 27.73H15.91C16.3 27.73 16.87 27.94 17.17 28.2L18.75 29.56C19.44 30.15 20.57 30.15 21.27 29.56L22.85 28.2C23.15 27.94 23.71 27.73 24.11 27.73H25.81C26.87 27.73 27.74 26.86 27.74 25.8V24.1C27.74 23.71 27.95 23.14 28.21 22.84L29.57 21.26C30.15 20.57 30.15 19.43 29.56 18.74ZM24.68 20L23.51 23.56C23.36 24.15 22.73 24.63 22.09 24.63H20.24C19.92 24.63 19.47 24.52 19.27 24.32L17.8 23.17C17.77 23.81 17.48 24.08 16.77 24.08H16.29C15.55 24.08 15.25 23.79 15.25 23.09V18.31C15.25 17.61 15.55 17.32 16.29 17.32H16.78C17.52 17.32 17.82 17.61 17.82 18.31V18.67L19.76 15.79C19.96 15.48 20.47 15.26 20.9 15.43C21.37 15.59 21.67 16.11 21.57 16.57L21.33 18.13C21.31 18.27 21.34 18.4 21.43 18.5C21.51 18.59 21.63 18.65 21.76 18.65H23.71C24.09 18.65 24.41 18.8 24.6 19.07C24.77 19.33 24.8 19.66 24.68 20Z" fill="white"></path></svg> 